<?xml version="1.0" encoding="UTF-8" standalone="no"?>
<!DOCTYPE svg  PUBLIC '-//W3C//DTD SVG 1.1//EN'  'http://www.w3.org/Graphics/SVG/1.1/DTD/svg11.dtd'>
<svg xmlns="http://www.w3.org/2000/svg">
<defs>
<font id="Panton-LightitalicCaps" horiz-adv-x="630">
<font-face underline-position="-50" font-weight="300" descent="-200" panose-1="0 0 4 0 0 0 0 0 0 0" units-per-em="1000" unicode-range="U+0020-25CA" bbox="-199 -248 1127 908" font-variant="small-caps" x-height="710" underline-thickness="50" font-family="Panton" ascent="800" font-style="italic" cap-height="710"/>
<missing-glyph horiz-adv-x="1000"/>
<glyph glyph-name=".notdef" horiz-adv-x="1000"/>
<glyph glyph-name=".null" horiz-adv-x="0"/>
<glyph glyph-name="nonmarkingreturn" horiz-adv-x="333"/>
<glyph glyph-name="space" horiz-adv-x="247" unicode=" "/>
<glyph glyph-name="exclam" horiz-adv-x="189" unicode="!" d="M55 55q23 0 23 -17q0 -6 -1 -10l-1 -6q-5 -27 -33 -27h-5q-23 0 -23 17q0 6 1 10l1 6q3 16 10 21.5t23 5.5h5zM184 740q10 0 10 -7v-2q-1 -2 -1 -3l-105 -566q-3 -11 -14 -11h-11q-10 0 -10 6l1 2v3l93 566q1 12 14 12h23z"/>
<glyph glyph-name="quotedbl" horiz-adv-x="267" unicode='&quot;' d="M229 494q-3 -10 -13 -10h-12q-10 0 -8 10l36 205q1 11 12 11h20q7 0 9 -2t1 -9zM132 494q-1 -10 -13 -10h-11q-7 0 -8.5 2t-0.5 8l37 205q1 11 12 11h19q11 0 11 -6v-2q-1 -2 -1 -3z"/>
<glyph glyph-name="numbersign" horiz-adv-x="669" unicode="#" d="M382 242l89 187h-175l-89 -187h175zM650 469q9 0 9 -5q0 -1 -2 -7l-8 -18q-6 -10 -18 -10h-117l-89 -187h117q13 0 8 -12l-10 -18q-4 -10 -16 -10h-117l-90 -190q-8 -12 -18 -12h-20q-11 0 -6 12l90 190h-175l-90 -190q-5 -12 -17 -12h-20q-13 0 -6 12l90 190h-115 q-9 0 -9 5l2 6l9 18q5 11 17 11h115l89 187h-116q-11 0 -6 11l9 18q4 11 17 11h115l79 166q5 12 17 12h20q11 0 6 -12l-79 -166h175l79 166q7 12 17 12h20q13 0 6 -12l-79 -166h117z"/>
<glyph glyph-name="dollar" horiz-adv-x="591" unicode="$" d="M388 788q11 0 10 -12l-13 -70q82 -6 123.5 -43.5t67.5 -108.5q0 -1 0.5 -2.5t0.5 -2.5q0 -9 -11 -13l-18 -6q-12 -6 -16 5q-24 66 -63 97t-120 31q-180 0 -206 -152q-2 -10 -2 -27q0 -25 10.5 -43.5t24.5 -28.5t41.5 -17t46 -9.5t54.5 -6.5q37 -4 61 -8t55 -14.5 t49 -24.5t30.5 -39.5t12.5 -58.5q0 -21 -4 -41q-31 -179 -260 -188l-13 -71q-1 -12 -14 -12h-19q-11 0 -10 12l13 71q-87 5 -131.5 48.5t-63.5 124.5q0 1 -0.5 2.5t-0.5 2.5q0 10 12 14l19 6q14 4 16 -8q19 -75 58.5 -111.5t123.5 -36.5q198 0 225 150q3 17 3 30 q0 26 -11 44.5t-24 28.5t-42 17.5t-46 10t-55 6.5q-36 4 -61 8t-55 14.5t-48.5 24.5t-31 38.5t-12.5 57.5q0 11 4 39q32 183 244 190l13 70q3 12 14 12h19z"/>
<glyph glyph-name="percent" horiz-adv-x="806" unicode="%" d="M713 203q3 15 3 28q0 40 -26 62t-74 22q-56 0 -91.5 -29.5t-45.5 -82.5l-12 -71q-2 -9 -2 -26q0 -85 99 -85q57 0 92.5 29t44.5 82zM443 208q12 69 57.5 106t120.5 37q65 0 99 -30.5t34 -84.5q0 -16 -3 -34l-13 -74q-12 -68 -58.5 -105.5t-121.5 -37.5q-64 0 -97.5 30.5 t-33.5 84.5q0 16 3 34zM357 577q3 15 3 27q0 41 -26 63t-75 22q-56 0 -91.5 -29.5t-44.5 -82.5l-12 -71q-3 -15 -3 -28q0 -40 25.5 -61.5t74.5 -21.5q57 0 92 29t45 82zM745 710q8 0 8 -5q0 -4 -4 -8l-626 -686q-10 -11 -27 -11h-16q-9 0 -9 5q0 3 5 8l626 686q10 11 25 11 h18zM86 581q12 68 58 106t121 38q64 0 98 -30.5t34 -84.5q0 -16 -3 -34l-13 -74q-12 -68 -58 -105.5t-120 -37.5q-65 0 -99 30t-34 84q0 16 3 34z"/>
<glyph glyph-name="ampersand" horiz-adv-x="648" unicode="&amp;" d="M246 346q-80 -32 -123.5 -69.5t-55.5 -104.5q-2 -9 -2 -26q0 -52 33.5 -85.5t87.5 -33.5q52 0 101.5 23t136.5 90zM460 560q2 14 2 21q0 44 -30.5 74.5t-80.5 30.5q-59 0 -103 -38t-53 -90q-2 -9 -2 -25q0 -26 11 -52t23 -42.5t34 -43.5l22 10q35 14 52.5 21.5t43.5 22 t39 28.5t25 35t17 48zM154 561q13 68 68 115.5t136 47.5q66 0 106 -40t40 -99q0 -18 -2 -27q-13 -69 -59.5 -108.5t-146.5 -80.5l-10 -5l170 -197l86 70q9 7 16 0l13 -15q5 -7 -3 -15l-88 -71l108 -124q3 -4 3 -7q0 -5 -10 -5h-27q-11 0 -18 8l-88 102q-95 -76 -152 -100 t-118 -24q-69 0 -113.5 43.5t-44.5 110.5q0 16 3 34q14 79 64.5 124t134.5 79q-70 82 -70 155q0 19 2 29z"/>
<glyph glyph-name="quotesingle" horiz-adv-x="170" unicode="&apos;" d="M132 494q-1 -10 -13 -10h-11q-7 0 -8.5 2t-0.5 8l37 205q1 11 12 11h19q11 0 11 -6v-2q-1 -2 -1 -3z"/>
<glyph glyph-name="parenleft" horiz-adv-x="239" unicode="(" d="M117 611q16 88 59 139.5t120 83.5q6 2 7 2q5 0 7 -8l5 -18q0 -1 1 -3v-2q0 -5 -10 -11q-64 -28 -99 -69.5t-47 -113.5l-92 -516q-5 -30 -5 -50q0 -49 22 -80t66 -53q9 -8 3 -16l-11 -14q-6 -8 -11 -8q-1 0 -5 2q-54 27 -80.5 65t-26.5 98q0 27 6 60z"/>
<glyph glyph-name="parenright" horiz-adv-x="239" unicode=")" d="M116 828q5 8 10 8q2 0 6 -2q53 -27 79.5 -65t26.5 -98q0 -27 -6 -60l-91 -512q-15 -88 -58 -140t-119 -84q-6 -2 -8 -2q-4 0 -7 8l-5 20q-1 2 -1 5q0 4 10 10q63 28 98.5 69.5t47.5 113.5l92 517q5 32 5 51q0 49 -21.5 79.5t-66.5 52.5q-10 6 -4 15z"/>
<glyph glyph-name="asterisk" horiz-adv-x="386" unicode="*" d="M263 673q9 0 6 -8l-26 -114l115 40q8 3 11 -5l1 -14q2 -10 -8 -11l-116 -29l57 -90q5 -6 -3 -12l-15 -9q-2 -2 -6 -2t-5 5l-46 96l-80 -96q-2 -5 -7 -5l-5 2l-11 10q-7 5 1 12l88 89l-103 30q-7 1 -7 5q0 1 2 5l7 15q5 8 12 4l99 -40l15 114q0 8 9 8h15z"/>
<glyph glyph-name="plus" horiz-adv-x="576" unicode="+" d="M520 347q11 0 11 -7l-1 -2v-3l-3 -16q-1 -12 -15 -12h-203l-35 -203q-3 -13 -15 -13h-16q-13 0 -10 13l35 203h-203q-11 0 -10 12l3 16q3 12 15 12h203l36 203q1 13 14 13h16q13 0 10 -13l-35 -203h203z"/>
<glyph glyph-name="comma" horiz-adv-x="158" unicode="," d="M-8 -110q-4 -11 -15 -11h-9q-9 0 -8 9l58 157q4 15 19 15h17q13 0 13 -8q0 -1 -2 -7z"/>
<glyph glyph-name="hyphen" horiz-adv-x="426" unicode="-" d="M347 286q11 0 11 -7v-2q-1 -2 -1 -3l-3 -17q-1 -12 -14 -12h-273q-12 0 -11 12l3 17q3 12 15 12h273z"/>
<glyph glyph-name="period" horiz-adv-x="162" unicode="." d="M47 55q23 0 23 -16q0 -7 -1 -11l-1 -6q-5 -27 -33 -27h-5q-23 0 -23 16q0 7 1 11l2 6q2 16 9 21.5t23 5.5h5z"/>
<glyph glyph-name="slash" horiz-adv-x="398" unicode="/" d="M20 -49q-5 -11 -18 -11h-21q-8 0 -8 5l2 6l410 748q6 11 18 11h21q8 0 8 -5q0 -2 -2 -6z"/>
<glyph glyph-name="zero" horiz-adv-x="621" unicode="0" d="M549 497q4 28 4 41q0 68 -45 105.5t-130 37.5q-97 0 -159.5 -49t-77.5 -135l-50 -284q-4 -28 -4 -41q0 -68 45.5 -105.5t130.5 -37.5q97 0 159 48.5t77 135.5zM96 500q19 106 94 165t194 59q102 0 158.5 -49t56.5 -133q0 -22 -5 -50l-50 -283q-18 -106 -93.5 -164.5 t-193.5 -58.5q-104 0 -159.5 48.5t-55.5 133.5q0 26 4 49z"/>
<glyph glyph-name="one" horiz-adv-x="415" unicode="1" d="M383 710q12 0 11 -13l-121 -684q-3 -13 -15 -13h-21q-13 0 -10 13l113 641l-244 -123q-14 -7 -18 4l-7 18q-2 4 -2 5q0 6 10 11l267 136q10 5 19 5h18z"/>
<glyph glyph-name="two" horiz-adv-x="582" unicode="2" d="M103 562q49 82 116 122t164 40q91 0 141.5 -46t50.5 -124q0 -13 -4 -43q-6 -32 -18 -59.5t-25 -47.5t-38.5 -39.5t-42 -30.5t-54 -27t-55.5 -23t-64 -24q-38 -13 -58 -21t-50.5 -23.5t-47 -31t-32 -39t-20.5 -52.5l-8 -50h415q13 0 10 -12l-3 -18q-3 -13 -15 -13h-450 q-12 0 -12 9l1 1v3l12 72q7 39 25.5 70t39.5 51.5t56.5 40t61.5 30t70 26.5q114 41 153 65q86 52 102 145q3 20 3 37q0 62 -39.5 96.5t-111.5 34.5q-79 0 -134 -33t-98 -102q-7 -11 -17 -7l-20 7q-9 6 -4 16z"/>
<glyph glyph-name="three" horiz-adv-x="592" unicode="3" d="M559 524q-10 -55 -41 -97t-83 -60q90 -35 90 -134q0 -23 -4 -43q-36 -204 -269 -204q-112 0 -163.5 44t-61.5 134q0 1 -1 3v2q0 8 12 11l19 7q12 4 15 -9q10 -79 49.5 -114t135.5 -35q189 0 218 164q3 19 3 36q0 54 -32 84t-93 30h-167q-13 0 -10 12l3 17q1 13 15 13h161 q67 0 107.5 40t51.5 99q3 18 3 35q0 59 -37.5 90.5t-108.5 31.5q-91 0 -141.5 -33t-87.5 -110q-6 -11 -18 -7l-17 6q-12 4 -6 17q42 88 106 129t173 41q88 0 135.5 -41.5t47.5 -114.5q0 -23 -4 -44z"/>
<glyph glyph-name="four" horiz-adv-x="600" unicode="4" d="M402 249l73 407l-400 -407h327zM551 249q11 0 11 -8v-2q-1 -2 -1 -3l-3 -16q-1 -13 -14 -13h-105l-34 -194q-3 -13 -15 -13h-19q-13 0 -10 13l34 194h-370q-12 0 -11 13l3 13q1 10 7 16l452 463q9 9 20 9h20q14 0 11 -14l-81 -458h105z"/>
<glyph glyph-name="five" horiz-adv-x="584" unicode="5" d="M569 710q12 0 11 -13l-4 -18q-1 -12 -14 -12h-352l-68 -247h180q97 0 149.5 -45t52.5 -125q0 -21 -5 -49q-17 -95 -88.5 -155.5t-185.5 -60.5q-100 0 -165 42.5t-65 117.5q0 8 10 12l23 7q11 6 14 -8q23 -128 189 -128q90 0 148 49.5t72 127.5q4 19 4 40q0 64 -42 98 t-118 34h-213q-17 0 -13 17l82 294q6 22 28 22h370z"/>
<glyph glyph-name="six" horiz-adv-x="615" unicode="6" d="M95 234q-5 -24 -5 -53q0 -73 44.5 -112.5t130.5 -39.5q98 0 159.5 43.5t76.5 124.5q4 20 4 43q0 64 -42 95t-132 31q-112 0 -221 -40zM118 371q95 38 223 38q210 0 210 -163q0 -22 -5 -54q-18 -100 -92.5 -153t-194.5 -53q-106 0 -161 50t-55 141q0 29 6 60l42 241 q21 121 96.5 183.5t199.5 62.5q185 0 216 -151q0 -1 1 -3v-2q0 -7 -12 -10l-20 -7q-12 -6 -14 8q-26 122 -179 122q-102 0 -163.5 -52t-78.5 -153z"/>
<glyph glyph-name="seven" horiz-adv-x="507" unicode="7" d="M549 710q12 0 12 -8l-1 -2v-3l-2 -12q-3 -9 -7 -18l-404 -656q-8 -11 -25 -11h-21q-12 0 -4 13l405 654h-405q-12 0 -11 12l4 18q3 13 15 13h444z"/>
<glyph glyph-name="eight" horiz-adv-x="608" unicode="8" d="M488 173q3 17 3 30q0 31 -13 53.5t-40.5 37.5t-54 24t-70.5 22q-14 4 -22 6q-18 -4 -32.5 -7.5t-49 -17.5t-58.5 -31.5t-47.5 -50t-30.5 -71.5q-3 -15 -3 -29q0 -113 186 -113q207 0 232 147zM537 544q3 15 3 28q0 112 -169 112q-88 0 -143 -36t-68 -104q-3 -15 -3 -28 q0 -25 10 -44.5t23.5 -32t39.5 -24.5t44 -17.5t52 -15.5l14 -4q174 39 197 166zM115 548q15 86 84.5 131t179.5 45q101 0 153 -37t52 -107q0 -18 -3 -37q-25 -134 -191 -181q71 -24 109.5 -58t38.5 -97q0 -17 -3 -37q-33 -184 -286 -184q-227 0 -227 140q0 12 4 38 q8 47 34 84.5t62.5 60.5t64 35t57.5 20q-62 23 -97 57.5t-35 91.5q0 17 3 35z"/>
<glyph glyph-name="nine" horiz-adv-x="616" unicode="9" d="M540 476q5 32 5 52q0 74 -44.5 113.5t-130.5 39.5q-98 0 -160 -43.5t-77 -124.5q-4 -20 -4 -42q0 -127 175 -127q117 0 220 40zM516 339q-91 -38 -223 -38q-209 0 -209 161q0 31 5 56q17 100 91.5 153t194.5 53q106 0 161 -49.5t55 -139.5q0 -29 -6 -62l-42 -241 q-21 -121 -96 -183.5t-199 -62.5q-92 0 -154.5 41t-62.5 113q0 8 11 12l20 7q12 5 15 -8q25 -122 178 -122q102 0 163.5 52t78.5 153z"/>
<glyph glyph-name="colon" horiz-adv-x="198" unicode=":" d="M76 138q23 0 23 -16q0 -7 -1 -11l-1 -6q-3 -16 -10 -21.5t-23 -5.5h-5q-23 0 -23 16q0 7 1 11l2 6q2 15 9 21t23 6h5zM117 399q23 0 23 -17q0 -6 -1 -10l-1 -6q-3 -16 -10 -21.5t-23 -5.5h-5q-24 0 -24 15q0 2 2 12l1 6q5 27 33 27h5z"/>
<glyph glyph-name="semicolon" horiz-adv-x="200" unicode=";" d="M6 -110q-6 -11 -16 -11h-8q-8 0 -8 4q0 3 1 5l66 157q5 15 20 15h17q19 0 10 -15zM123 482q23 0 23 -18q0 -6 -1 -10l-2 -5q-2 -16 -9 -22t-23 -6h-5q-24 0 -24 16q0 2 2 12l1 5q5 28 33 28h5z"/>
<glyph glyph-name="less" horiz-adv-x="503" unicode="&lt;" d="M467 551q5 3 9 3q6 0 5 -12l-5 -19q-3 -15 -16 -21l-361 -176l-1 -2l299 -175q12 -7 10 -22l-3 -17q-2 -12 -8 -12q-3 0 -8 3l-338 202q-10 6 -10 12q0 1 0.5 2.5t0.5 2.5l2 12q3 12 15 17z"/>
<glyph glyph-name="equal" horiz-adv-x="606" unicode="=" d="M515 249q12 0 11 -13l-3 -16q-3 -13 -15 -13h-447q-11 0 -11 8v2q1 2 1 3l3 16q1 13 14 13h447zM550 447q12 0 11 -13l-3 -17q-3 -12 -15 -12h-447q-11 0 -11 7l1 2v3l3 17q1 13 14 13h447z"/>
<glyph glyph-name="greater" horiz-adv-x="502" unicode="&gt;" d="M107 542q3 12 9 12q4 0 7 -2l338 -203q10 -4 10 -11q0 -1 -0.5 -3t-0.5 -3l-2 -12q-2 -11 -15 -17l-409 -202q-6 -3 -9 -3q-7 0 -5 12l5 20q3 15 16 22l361 175l1 2l-299 176q-8 4 -10 7.5t0 13.5z"/>
<glyph glyph-name="question" horiz-adv-x="555" unicode="?" d="M211 55q23 0 23 -16q0 -7 -1 -11v-6q-5 -27 -33 -27h-5q-23 0 -23 16q0 7 1 11l1 6q2 16 9 21.5t23 5.5h5zM82 576q91 164 275 164q96 0 150 -48t54 -123q0 -18 -3 -36q-7 -39 -22.5 -72t-30 -53t-43 -42.5t-41.5 -31t-46 -27.5q-38 -23 -58 -37.5t-42.5 -45.5t-29.5 -71 q-3 -13 -14 -13h-15q-12 0 -11 13q9 49 34.5 86.5t49 55t65.5 43.5q34 20 52.5 33t44 36.5t40 54.5t21.5 71q3 17 3 33q0 59 -42 96t-120 37q-155 0 -233 -138q-8 -12 -17 -8l-16 7q-8 5 -8 8q0 4 3 8z"/>
<glyph glyph-name="at" horiz-adv-x="900" unicode="@" d="M603 475q-54 23 -142 23q-137 0 -159 -129l-28 -156q-3 -18 -3 -33q0 -95 117 -95q109 0 174 39l56 322q1 4 1 10q0 12 -16 19zM55 326q32 185 156 291.5t311 106.5q165 0 251.5 -81.5t86.5 -223.5q0 -43 -9 -93l-12 -69q-18 -101 -78.5 -155.5t-133.5 -54.5 q-51 0 -55 43q-89 -40 -194 -40q-146 0 -146 120q0 22 4 42l28 158q13 78 63 121t136 43q101 0 170 -30q27 -13 27 -33q0 -3 -2 -15l-59 -336q-1 -4 -1 -10q0 -29 35 -29q58 0 106.5 44.5t63.5 131.5l12 70q8 43 8 90q0 130 -78 202t-229 72q-169 0 -282 -97t-143 -267 l-12 -70q-8 -50 -8 -87q0 -130 79.5 -199.5t226.5 -69.5q30 0 62.5 2.5t59 7t46 8t35.5 7.5l16 3q5 1 6.5 0t0.5 -4l-3 -19q-1 -8 -10 -11q-108 -27 -219 -27q-162 0 -249.5 76t-87.5 218q0 44 9 95z"/>
<glyph glyph-name="A" d="M384 626q-2 12 -2 31v12h-2q0 -1 -2.5 -8t-6 -16.5t-7.5 -18.5l-205 -355h305zM568 12q2 -12 -11 -12h-17q-19 0 -20 11l-50 221h-332l-127 -221q-6 -11 -25 -11h-18q-10 0 -10 5q0 3 3 7l398 691q7 12 19 12h20q12 0 15 -12z" unicode="A"/>
<glyph glyph-name="B" horiz-adv-x="640" unicode="B" d="M524 193q3 19 3 36q0 54 -33 83t-96 29h-262l-53 -298h263q73 0 119 38.5t59 111.5zM559 526q4 26 4 37q0 104 -124 104h-246l-50 -284h246q70 0 114 36t56 107zM450 710q77 0 119 -36t42 -103q0 -22 -4 -42q-22 -126 -132 -162v-2q48 -12 74.5 -48t26.5 -89 q0 -23 -4 -43q-17 -90 -78 -137.5t-155 -47.5h-297q-11 0 -11 7q0 1 0.5 3t0.5 3l121 684q1 13 14 13h283z"/>
<glyph glyph-name="C" horiz-adv-x="632" unicode="C" d="M92 480q21 116 100.5 180t209.5 64q113 0 167 -43.5t64 -131.5q0 -1 0.5 -2.5t0.5 -2.5q0 -8 -11 -11l-17 -6q-14 -4 -15 8q-10 76 -54.5 111t-139.5 35q-109 0 -175.5 -53t-83.5 -149l-42 -245q-5 -28 -5 -48q0 -75 48.5 -115.5t142.5 -40.5q97 0 154 36.5t94 113.5 q7 12 18 8l19 -7q11 -4 5 -17q-43 -90 -110.5 -134t-183.5 -44q-113 0 -173.5 51t-60.5 143q0 23 5 55z"/>
<glyph glyph-name="D" horiz-adv-x="646" unicode="D" d="M569 446q5 30 5 51q0 82 -53.5 126t-155.5 44h-172l-110 -624h172q116 0 189.5 58t92.5 163zM372 710q120 0 184 -55.5t64 -152.5q0 -28 -6 -60l-32 -182q-22 -123 -109 -191.5t-225 -68.5h-206q-11 0 -11 7q0 1 0.5 3t0.5 3l121 684q1 13 14 13h205z"/>
<glyph glyph-name="E" horiz-adv-x="569" unicode="E" d="M576 710q11 0 11 -8l-1 -2v-3l-4 -18q-1 -12 -14 -12h-375l-50 -286h331q14 0 11 -12l-4 -18q-3 -13 -15 -13h-331l-52 -295h389q13 0 10 -12l-3 -18q-3 -13 -15 -13h-422q-11 0 -11 7q0 1 0.5 3t0.5 3l121 684q1 13 14 13h409z"/>
<glyph glyph-name="F" horiz-adv-x="558" unicode="F" d="M576 710q11 0 11 -8l-1 -2v-3l-4 -18q-1 -12 -14 -12h-375l-52 -296h326q13 0 10 -13l-3 -18q-1 -12 -15 -12h-326l-55 -315q-3 -13 -15 -13h-21q-11 0 -11 7q0 1 0.5 3t0.5 3l121 684q1 13 14 13h409z"/>
<glyph glyph-name="G" horiz-adv-x="651" unicode="G" d="M596 358q14 0 11 -14l-21 -120q-20 -112 -100 -175t-209 -63q-113 0 -173 51.5t-60 142.5q0 23 5 56l43 244q21 116 100.5 180t210.5 64q112 0 166.5 -44t64.5 -130q0 -1 0.5 -3t0.5 -3q0 -8 -11 -11l-19 -6q-12 -4 -15 8q-9 76 -53.5 111t-139.5 35q-110 0 -176 -53 t-83 -149l-43 -245q-4 -23 -4 -48q0 -75 48.5 -116t143.5 -41q107 0 174.5 53t83.5 145l15 87h-214q-13 0 -10 13l3 18q3 13 15 13h246z"/>
<glyph glyph-name="H" horiz-adv-x="681" unicode="H" d="M657 710q11 0 11 -8v-2q-1 -2 -1 -3l-121 -684q-1 -13 -14 -13h-22q-13 0 -10 13l57 325h-422l-57 -325q-3 -13 -15 -13h-21q-11 0 -11 7q0 1 0.5 3t0.5 3l121 684q1 13 14 13h21q12 0 11 -13l-56 -316h422l56 316q3 13 14 13h22z"/>
<glyph glyph-name="I" horiz-adv-x="212" unicode="I" d="M153 697q1 13 14 13h21q12 0 11 -13l-121 -684q-3 -13 -15 -13h-21q-11 0 -11 7q0 1 0.5 3t0.5 3z"/>
<glyph glyph-name="J" horiz-adv-x="566" unicode="J" d="M547 710q12 0 12 -8l-1 -2v-2l-86 -487q-19 -108 -89 -167t-183 -59q-197 0 -200 197q0 1 -0.5 3t-0.5 3q0 8 10 11l20 6q14 4 15 -8q1 -83 38.5 -125.5t121.5 -42.5q91 0 148.5 49.5t73.5 138.5l85 481q3 12 14 12h22z"/>
<glyph glyph-name="K" horiz-adv-x="599" unicode="K" d="M528 13q4 -13 -10 -13h-19q-18 0 -22 11l-76 233q-17 52 -45.5 73.5t-89.5 21.5h-131l-57 -326q-3 -13 -15 -13h-21q-11 0 -11 7q0 1 0.5 3t0.5 3l121 684q1 13 14 13h21q12 0 11 -13l-56 -316h124q17 0 25 -1l292 319q9 11 27 11h23q9 0 9 -5q0 -3 -5 -8l-301 -327 q44 -10 68.5 -36t39.5 -72z"/>
<glyph glyph-name="L" horiz-adv-x="509" unicode="L" d="M188 710q12 0 11 -13l-116 -654h364q11 0 11 -7v-2q-1 -2 -1 -3l-3 -18q-3 -13 -15 -13h-397q-11 0 -11 7q0 1 0.5 3t0.5 3l121 684q1 13 14 13h21z"/>
<glyph glyph-name="M" horiz-adv-x="797" unicode="M" d="M773 710q12 0 11 -13l-121 -684q-3 -13 -15 -13h-20q-13 0 -10 13l82 459q14 80 36 167h-2q-47 -71 -100 -143l-234 -316q-7 -10 -18 -10h-11q-12 0 -15 10l-125 320q-23 58 -47 139h-2q-6 -59 -24 -167l-81 -459q-3 -13 -15 -13h-20q-11 0 -11 7q0 1 0.5 3t0.5 3 l121 684q1 13 14 13h15q13 0 17 -11l185 -473l349 472q8 12 20 12h20z"/>
<glyph glyph-name="N" horiz-adv-x="689" unicode="N" d="M664 710q12 0 12 -8v-2q-1 -2 -1 -3l-121 -684q-3 -13 -15 -13h-20q-10 0 -13 8l-264 506q-12 24 -30.5 70t-26.5 60h-3q-3 -19 -10 -76t-12 -89l-83 -466q-3 -13 -15 -13h-20q-11 0 -11 7q0 1 0.5 3t0.5 3l121 684q1 13 14 13h17q9 0 14 -7l258 -493q16 -30 38 -80.5 t28 -62.5h3q3 16 10 78.5t14 101.5l80 451q3 12 15 12h20z"/>
<glyph glyph-name="O" horiz-adv-x="663" unicode="O" d="M586 477q5 28 5 48q0 75 -49 115.5t-143 40.5q-109 0 -175.5 -53t-83.5 -151l-44 -244q-4 -21 -4 -46q0 -76 49.5 -117t143.5 -41q107 0 174 53.5t84 150.5zM94 481q20 116 100 179.5t211 63.5q112 0 172 -52t60 -144q0 -24 -5 -56l-43 -244q-20 -116 -100 -179t-209 -63 q-114 0 -174.5 52t-60.5 144q0 23 5 55z"/>
<glyph glyph-name="P" horiz-adv-x="618" unicode="P" d="M363 319q83 0 138.5 46t69.5 127q4 20 4 41q0 64 -39.5 99t-110.5 35h-232l-61 -348h231zM436 710q88 0 137.5 -46t49.5 -126q0 -22 -5 -52q-19 -101 -87 -155.5t-171 -54.5h-236l-46 -263q-3 -13 -15 -13h-21q-11 0 -11 7q0 1 0.5 3t0.5 3l121 684q1 13 14 13h269z"/>
<glyph glyph-name="Q" horiz-adv-x="674" unicode="Q" d="M399 681q-109 0 -175.5 -53t-83.5 -151l-44 -244q-4 -21 -4 -46q0 -76 49.5 -117t143.5 -41q107 0 174 53.5t84 150.5l43 244q5 28 5 48q0 75 -49 115.5t-143 40.5zM94 481q20 116 100 179.5t211 63.5q112 0 172 -52t60 -144q0 -24 -5 -56l-43 -244q-20 -109 -91 -171 l56 -85q7 -10 -4 -18l-16 -11q-7 -5 -10 -5q-4 0 -8 6l-58 87q-73 -45 -178 -45q-114 0 -174.5 52t-60.5 144q0 23 5 55z"/>
<glyph glyph-name="R" horiz-adv-x="638" unicode="R" d="M574 510q4 28 4 39q0 57 -35 87.5t-101 30.5h-249l-55 -312h249q75 0 124.5 40t62.5 115zM454 710q82 0 127 -40.5t45 -114.5q0 -21 -5 -49q-15 -85 -70 -133.5t-139 -55.5q46 -21 68 -82l73 -222q6 -13 -9 -13h-20q-19 0 -23 11l-67 206q-17 52 -46 73.5t-90 21.5h-167 l-53 -299q-3 -13 -15 -13h-21q-11 0 -11 7q0 1 0.5 3t0.5 3l121 684q1 13 14 13h287z"/>
<glyph glyph-name="S" horiz-adv-x="614" unicode="S" d="M96 539q16 90 89 137.5t193 47.5q96 0 149 -39.5t77 -113.5q1 -2 1 -6q0 -7 -10 -10l-18 -9q-13 -4 -16 6q-21 63 -65 95.5t-125 32.5q-98 0 -157.5 -37.5t-71.5 -108.5q-3 -15 -3 -29q0 -34 16 -57.5t47 -37t61.5 -20t74.5 -11.5q37 -4 64.5 -10t58 -17.5t50 -28t32 -43 t12.5 -60.5q0 -21 -4 -41q-34 -193 -294 -193q-104 0 -163 43t-79 132q0 1 -0.5 3t-0.5 3q0 8 11 12l21 7q11 4 15 -8q19 -77 67.5 -112.5t132.5 -35.5q217 0 245 156q3 16 3 29q0 27 -11.5 47t-27 31.5t-43.5 20t-49.5 12.5t-57.5 8q-48 6 -83.5 15t-71 27t-54.5 49t-19 75 q0 11 4 39z"/>
<glyph glyph-name="T" horiz-adv-x="529" unicode="T" d="M576 710q12 0 11 -13l-4 -18q-1 -12 -14 -12h-218l-115 -654q-3 -13 -15 -13h-21q-13 0 -10 13l115 654h-217q-12 0 -11 12l4 18q1 13 14 13h481z"/>
<glyph glyph-name="U" horiz-adv-x="681" unicode="U" d="M112 240q-5 -30 -5 -51q0 -76 46.5 -118.5t139.5 -42.5q107 0 171.5 56.5t82.5 155.5l81 457q1 13 14 13h21q12 0 12 -8l-1 -2v-3l-82 -462q-21 -119 -98.5 -184.5t-206.5 -65.5q-112 0 -169 53t-57 146q0 30 6 61l80 452q3 13 15 13h21q12 0 11 -13z"/>
<glyph glyph-name="V" horiz-adv-x="611" unicode="V" d="M663 710q9 0 9 -5q0 -4 -3 -7l-388 -686q-7 -12 -19 -12h-19q-14 0 -15 11l-146 687v2l-1 2q0 8 11 8h19q18 0 20 -11l119 -575q3 -13 6.5 -37t4.5 -30h2q4 7 15 30.5t18 36.5l324 575q6 11 22 11h21z"/>
<glyph glyph-name="W" horiz-adv-x="869" unicode="W" d="M908 710q9 0 9 -6q0 -1 -1 -3t-1 -3l-306 -686q-5 -12 -19 -12h-21q-14 0 -15 11l-55 527q-4 55 -5 91h-3q-11 -33 -37 -91l-243 -526q-5 -12 -19 -12h-20q-15 0 -15 11l-64 687q-1 12 10 12h24q15 0 16 -11l47 -538q2 -17 2.5 -54.5t0.5 -40.5h3q20 55 38 94l242 523 q5 12 19 12h19q15 0 15 -12l56 -525q3 -43 5 -92h2q4 10 16.5 43t18.5 49l240 541q4 11 18 11h23z"/>
<glyph glyph-name="X" horiz-adv-x="606" unicode="X" d="M648 710q8 0 8 -5q0 -4 -3 -7l-310 -338l196 -345q5 -6 2.5 -10.5t-10.5 -4.5h-24q-18 0 -22 11l-177 313l-284 -313q-10 -11 -26 -11h-28q-8 0 -8 5q0 3 5 10l318 346l-190 337q-2 4 0 8t8 4h25q16 0 22 -11l170 -301l276 301q10 11 24 11h28z"/>
<glyph glyph-name="Y" horiz-adv-x="616" unicode="Y" d="M666 710q8 0 8 -6q0 -1 -2 -7l-343 -405l-49 -279q-3 -13 -15 -13h-21q-13 0 -10 13l49 280l-198 404q-1 2 -1 5q0 8 10 8h24q18 0 23 -11l173 -359l301 359q8 11 25 11h26z"/>
<glyph glyph-name="Z" horiz-adv-x="548" unicode="Z" d="M570 710q12 0 12 -8v-2q-1 -2 -1 -3l-3 -16q-1 -9 -8 -16l-530 -621h425q14 0 10 -13l-3 -18q-3 -13 -15 -13h-470q-11 0 -11 8v2q1 2 1 3l3 17q1 9 8 17l530 620h-409q-13 0 -10 12l3 18q3 13 15 13h453z"/>
<glyph glyph-name="bracketleft" horiz-adv-x="254" unicode="[" d="M330 856q10 0 10 -5q0 -4 -1 -6l-2 -17q-2 -11 -13 -11h-121l-163 -923h121q7 0 8.5 -2.5t0.5 -9.5l-3 -17q-2 -11 -14 -11h-151q-10 0 -10 6q0 1 0.5 3t0.5 3l173 978q2 12 13 12h151z"/>
<glyph glyph-name="backslash" horiz-adv-x="390" unicode="\" d="M104 699q-2 11 10 11h20q13 0 15 -11l145 -748q2 -11 -10 -11h-21q-10 0 -14 11z"/>
<glyph glyph-name="bracketright" horiz-adv-x="254" unicode="]" d="M271 856q10 0 10 -6q0 -1 -0.5 -3t-0.5 -3l-172 -978q-2 -12 -14 -12h-151q-10 0 -10 6l1 2v3l3 17q2 12 14 12h120l163 923h-120q-7 0 -9 2t-1 9l3 17q2 11 13 11h151z"/>
<glyph glyph-name="asciicircum" horiz-adv-x="591" unicode="^" d="M393 810q8 0 14 -10l173 -265q2 -3 2 -8q0 -7 -11 -7h-19q-11 0 -14 2t-9 9l-148 233h-3l-230 -233q-10 -11 -25 -11h-19q-10 0 -10 5q0 4 6 10l262 265q10 10 19 10h12z"/>
<glyph glyph-name="underscore" horiz-adv-x="510" unicode="_" d="M416 0q11 0 11 -8l-1 -2v-3l-3 -16q-1 -13 -14 -13h-427q-7 0 -9.5 2.5t-1.5 10.5l3 16q3 13 15 13h427z"/>
<glyph glyph-name="grave" horiz-adv-x="257" unicode="`" d="M118 722q5 4 11 4q5 0 11 -3l150 -108q4 -2 4 -5q0 -2 -6 -8l-5 -6q-4 -4 -7 -4t-9 3l-159 102q-6 3 -6 6q0 2 7 9z"/>
<glyph glyph-name="a" d="M384 626q-2 12 -2 31v12h-2q0 -1 -2.5 -8t-6 -16.5t-7.5 -18.5l-205 -355h305zM568 12q2 -12 -11 -12h-17q-19 0 -20 11l-50 221h-332l-127 -221q-6 -11 -25 -11h-18q-10 0 -10 5q0 3 3 7l398 691q7 12 19 12h20q12 0 15 -12z" unicode="a"/>
<glyph glyph-name="b" horiz-adv-x="640" unicode="b" d="M524 193q3 19 3 36q0 54 -33 83t-96 29h-262l-53 -298h263q73 0 119 38.5t59 111.5zM559 526q4 26 4 37q0 104 -124 104h-246l-50 -284h246q70 0 114 36t56 107zM450 710q77 0 119 -36t42 -103q0 -22 -4 -42q-22 -126 -132 -162v-2q48 -12 74.5 -48t26.5 -89 q0 -23 -4 -43q-17 -90 -78 -137.5t-155 -47.5h-297q-11 0 -11 7q0 1 0.5 3t0.5 3l121 684q1 13 14 13h283z"/>
<glyph glyph-name="c" horiz-adv-x="632" unicode="c" d="M92 480q21 116 100.5 180t209.5 64q113 0 167 -43.5t64 -131.5q0 -1 0.5 -2.5t0.5 -2.5q0 -8 -11 -11l-17 -6q-14 -4 -15 8q-10 76 -54.5 111t-139.5 35q-109 0 -175.5 -53t-83.5 -149l-42 -245q-5 -28 -5 -48q0 -75 48.5 -115.5t142.5 -40.5q97 0 154 36.5t94 113.5 q7 12 18 8l19 -7q11 -4 5 -17q-43 -90 -110.5 -134t-183.5 -44q-113 0 -173.5 51t-60.5 143q0 23 5 55z"/>
<glyph glyph-name="d" horiz-adv-x="646" unicode="d" d="M569 446q5 30 5 51q0 82 -53.5 126t-155.5 44h-172l-110 -624h172q116 0 189.5 58t92.5 163zM372 710q120 0 184 -55.5t64 -152.5q0 -28 -6 -60l-32 -182q-22 -123 -109 -191.5t-225 -68.5h-206q-11 0 -11 7q0 1 0.5 3t0.5 3l121 684q1 13 14 13h205z"/>
<glyph glyph-name="e" horiz-adv-x="569" unicode="e" d="M576 710q11 0 11 -8l-1 -2v-3l-4 -18q-1 -12 -14 -12h-375l-50 -286h331q14 0 11 -12l-4 -18q-3 -13 -15 -13h-331l-52 -295h389q13 0 10 -12l-3 -18q-3 -13 -15 -13h-422q-11 0 -11 7q0 1 0.5 3t0.5 3l121 684q1 13 14 13h409z"/>
<glyph glyph-name="f" horiz-adv-x="558" unicode="f" d="M576 710q11 0 11 -8l-1 -2v-3l-4 -18q-1 -12 -14 -12h-375l-52 -296h326q13 0 10 -13l-3 -18q-1 -12 -15 -12h-326l-55 -315q-3 -13 -15 -13h-21q-11 0 -11 7q0 1 0.5 3t0.5 3l121 684q1 13 14 13h409z"/>
<glyph glyph-name="g" horiz-adv-x="651" unicode="g" d="M596 358q14 0 11 -14l-21 -120q-20 -112 -100 -175t-209 -63q-113 0 -173 51.5t-60 142.5q0 23 5 56l43 244q21 116 100.5 180t210.5 64q112 0 166.5 -44t64.5 -130q0 -1 0.5 -3t0.5 -3q0 -8 -11 -11l-19 -6q-12 -4 -15 8q-9 76 -53.5 111t-139.5 35q-110 0 -176 -53 t-83 -149l-43 -245q-4 -23 -4 -48q0 -75 48.5 -116t143.5 -41q107 0 174.5 53t83.5 145l15 87h-214q-13 0 -10 13l3 18q3 13 15 13h246z"/>
<glyph glyph-name="h" horiz-adv-x="681" unicode="h" d="M657 710q11 0 11 -8v-2q-1 -2 -1 -3l-121 -684q-1 -13 -14 -13h-22q-13 0 -10 13l57 325h-422l-57 -325q-3 -13 -15 -13h-21q-11 0 -11 7q0 1 0.5 3t0.5 3l121 684q1 13 14 13h21q12 0 11 -13l-56 -316h422l56 316q3 13 14 13h22z"/>
<glyph glyph-name="i" horiz-adv-x="212" unicode="i" d="M153 697q1 13 14 13h21q12 0 11 -13l-121 -684q-3 -13 -15 -13h-21q-11 0 -11 7q0 1 0.5 3t0.5 3z"/>
<glyph glyph-name="j" horiz-adv-x="566" unicode="j" d="M547 710q12 0 12 -8l-1 -2v-2l-86 -487q-19 -108 -89 -167t-183 -59q-197 0 -200 197q0 1 -0.5 3t-0.5 3q0 8 10 11l20 6q14 4 15 -8q1 -83 38.5 -125.5t121.5 -42.5q91 0 148.5 49.5t73.5 138.5l85 481q3 12 14 12h22z"/>
<glyph glyph-name="k" horiz-adv-x="599" unicode="k" d="M528 13q4 -13 -10 -13h-19q-18 0 -22 11l-76 233q-17 52 -45.5 73.5t-89.5 21.5h-131l-57 -326q-3 -13 -15 -13h-21q-11 0 -11 7q0 1 0.5 3t0.5 3l121 684q1 13 14 13h21q12 0 11 -13l-56 -316h124q17 0 25 -1l292 319q9 11 27 11h23q9 0 9 -5q0 -3 -5 -8l-301 -327 q44 -10 68.5 -36t39.5 -72z"/>
<glyph glyph-name="l" horiz-adv-x="509" unicode="l" d="M188 710q12 0 11 -13l-116 -654h364q11 0 11 -7v-2q-1 -2 -1 -3l-3 -18q-3 -13 -15 -13h-397q-11 0 -11 7q0 1 0.5 3t0.5 3l121 684q1 13 14 13h21z"/>
<glyph glyph-name="m" horiz-adv-x="797" unicode="m" d="M773 710q12 0 11 -13l-121 -684q-3 -13 -15 -13h-20q-13 0 -10 13l82 459q14 80 36 167h-2q-47 -71 -100 -143l-234 -316q-7 -10 -18 -10h-11q-12 0 -15 10l-125 320q-23 58 -47 139h-2q-6 -59 -24 -167l-81 -459q-3 -13 -15 -13h-20q-11 0 -11 7q0 1 0.5 3t0.5 3 l121 684q1 13 14 13h15q13 0 17 -11l185 -473l349 472q8 12 20 12h20z"/>
<glyph glyph-name="n" horiz-adv-x="689" unicode="n" d="M664 710q12 0 12 -8v-2q-1 -2 -1 -3l-121 -684q-3 -13 -15 -13h-20q-10 0 -13 8l-264 506q-12 24 -30.5 70t-26.5 60h-3q-3 -19 -10 -76t-12 -89l-83 -466q-3 -13 -15 -13h-20q-11 0 -11 7q0 1 0.5 3t0.5 3l121 684q1 13 14 13h17q9 0 14 -7l258 -493q16 -30 38 -80.5 t28 -62.5h3q3 16 10 78.5t14 101.5l80 451q3 12 15 12h20z"/>
<glyph glyph-name="o" horiz-adv-x="663" unicode="o" d="M586 477q5 28 5 48q0 75 -49 115.5t-143 40.5q-109 0 -175.5 -53t-83.5 -151l-44 -244q-4 -21 -4 -46q0 -76 49.5 -117t143.5 -41q107 0 174 53.5t84 150.5zM94 481q20 116 100 179.5t211 63.5q112 0 172 -52t60 -144q0 -24 -5 -56l-43 -244q-20 -116 -100 -179t-209 -63 q-114 0 -174.5 52t-60.5 144q0 23 5 55z"/>
<glyph glyph-name="p" horiz-adv-x="618" unicode="p" d="M363 319q83 0 138.5 46t69.5 127q4 20 4 41q0 64 -39.5 99t-110.5 35h-232l-61 -348h231zM436 710q88 0 137.5 -46t49.5 -126q0 -22 -5 -52q-19 -101 -87 -155.5t-171 -54.5h-236l-46 -263q-3 -13 -15 -13h-21q-11 0 -11 7q0 1 0.5 3t0.5 3l121 684q1 13 14 13h269z"/>
<glyph glyph-name="q" horiz-adv-x="674" unicode="q" d="M399 681q-109 0 -175.5 -53t-83.5 -151l-44 -244q-4 -21 -4 -46q0 -76 49.5 -117t143.5 -41q107 0 174 53.5t84 150.5l43 244q5 28 5 48q0 75 -49 115.5t-143 40.5zM94 481q20 116 100 179.5t211 63.5q112 0 172 -52t60 -144q0 -24 -5 -56l-43 -244q-20 -109 -91 -171 l56 -85q7 -10 -4 -18l-16 -11q-7 -5 -10 -5q-4 0 -8 6l-58 87q-73 -45 -178 -45q-114 0 -174.5 52t-60.5 144q0 23 5 55z"/>
<glyph glyph-name="r" horiz-adv-x="638" unicode="r" d="M574 510q4 28 4 39q0 57 -35 87.5t-101 30.5h-249l-55 -312h249q75 0 124.5 40t62.5 115zM454 710q82 0 127 -40.5t45 -114.5q0 -21 -5 -49q-15 -85 -70 -133.5t-139 -55.5q46 -21 68 -82l73 -222q6 -13 -9 -13h-20q-19 0 -23 11l-67 206q-17 52 -46 73.5t-90 21.5h-167 l-53 -299q-3 -13 -15 -13h-21q-11 0 -11 7q0 1 0.5 3t0.5 3l121 684q1 13 14 13h287z"/>
<glyph glyph-name="s" horiz-adv-x="614" unicode="s" d="M96 539q16 90 89 137.5t193 47.5q96 0 149 -39.5t77 -113.5q1 -2 1 -6q0 -7 -10 -10l-18 -9q-13 -4 -16 6q-21 63 -65 95.5t-125 32.5q-98 0 -157.5 -37.5t-71.5 -108.5q-3 -15 -3 -29q0 -34 16 -57.5t47 -37t61.5 -20t74.5 -11.5q37 -4 64.5 -10t58 -17.5t50 -28t32 -43 t12.5 -60.5q0 -21 -4 -41q-34 -193 -294 -193q-104 0 -163 43t-79 132q0 1 -0.5 3t-0.5 3q0 8 11 12l21 7q11 4 15 -8q19 -77 67.5 -112.5t132.5 -35.5q217 0 245 156q3 16 3 29q0 27 -11.5 47t-27 31.5t-43.5 20t-49.5 12.5t-57.5 8q-48 6 -83.5 15t-71 27t-54.5 49t-19 75 q0 11 4 39z"/>
<glyph glyph-name="t" horiz-adv-x="529" unicode="t" d="M576 710q12 0 11 -13l-4 -18q-1 -12 -14 -12h-218l-115 -654q-3 -13 -15 -13h-21q-13 0 -10 13l115 654h-217q-12 0 -11 12l4 18q1 13 14 13h481z"/>
<glyph glyph-name="u" horiz-adv-x="681" unicode="u" d="M112 240q-5 -30 -5 -51q0 -76 46.5 -118.5t139.5 -42.5q107 0 171.5 56.5t82.5 155.5l81 457q1 13 14 13h21q12 0 12 -8l-1 -2v-3l-82 -462q-21 -119 -98.5 -184.5t-206.5 -65.5q-112 0 -169 53t-57 146q0 30 6 61l80 452q3 13 15 13h21q12 0 11 -13z"/>
<glyph glyph-name="v" horiz-adv-x="611" unicode="v" d="M663 710q9 0 9 -5q0 -4 -3 -7l-388 -686q-7 -12 -19 -12h-19q-14 0 -15 11l-146 687v2l-1 2q0 8 11 8h19q18 0 20 -11l119 -575q3 -13 6.5 -37t4.5 -30h2q4 7 15 30.5t18 36.5l324 575q6 11 22 11h21z"/>
<glyph glyph-name="w" horiz-adv-x="869" unicode="w" d="M908 710q9 0 9 -6q0 -1 -1 -3t-1 -3l-306 -686q-5 -12 -19 -12h-21q-14 0 -15 11l-55 527q-4 55 -5 91h-3q-11 -33 -37 -91l-243 -526q-5 -12 -19 -12h-20q-15 0 -15 11l-64 687q-1 12 10 12h24q15 0 16 -11l47 -538q2 -17 2.5 -54.5t0.5 -40.5h3q20 55 38 94l242 523 q5 12 19 12h19q15 0 15 -12l56 -525q3 -43 5 -92h2q4 10 16.5 43t18.5 49l240 541q4 11 18 11h23z"/>
<glyph glyph-name="x" horiz-adv-x="606" unicode="x" d="M648 710q8 0 8 -5q0 -4 -3 -7l-310 -338l196 -345q5 -6 2.5 -10.5t-10.5 -4.5h-24q-18 0 -22 11l-177 313l-284 -313q-10 -11 -26 -11h-28q-8 0 -8 5q0 3 5 10l318 346l-190 337q-2 4 0 8t8 4h25q16 0 22 -11l170 -301l276 301q10 11 24 11h28z"/>
<glyph glyph-name="y" horiz-adv-x="616" unicode="y" d="M666 710q8 0 8 -6q0 -1 -2 -7l-343 -405l-49 -279q-3 -13 -15 -13h-21q-13 0 -10 13l49 280l-198 404q-1 2 -1 5q0 8 10 8h24q18 0 23 -11l173 -359l301 359q8 11 25 11h26z"/>
<glyph glyph-name="z" horiz-adv-x="548" unicode="z" d="M570 710q12 0 12 -8v-2q-1 -2 -1 -3l-3 -16q-1 -9 -8 -16l-530 -621h425q14 0 10 -13l-3 -18q-3 -13 -15 -13h-470q-11 0 -11 8v2q1 2 1 3l3 17q1 9 8 17l530 620h-409q-13 0 -10 12l3 18q3 13 15 13h453z"/>
<glyph glyph-name="braceleft" horiz-adv-x="303" unicode="{" d="M380 856q10 0 10 -7v-2q-1 -2 -1 -3l-3 -16q-1 -12 -13 -12h-43q-44 0 -67 -21.5t-31 -66.5l-45 -255q-16 -94 -87 -119q49 -19 49 -79q0 -20 -4 -40l-45 -254q-3 -15 -3 -28q0 -60 70 -60h43q11 0 10 -12l-3 -16q-3 -12 -14 -12h-44q-55 0 -80 21t-25 64q0 21 4 41 l44 251q4 19 4 38q0 33 -18 48.5t-59 15.5h-10q-9 0 -8 12l3 20q3 12 12 12h11q50 0 75 25.5t34 76.5l44 252q12 66 45.5 96t99.5 30h45z"/>
<glyph glyph-name="bar" horiz-adv-x="180" unicode="|" d="M197 856q10 0 10 -7l-1 -2v-3l-172 -979q-3 -12 -14 -12h-18q-10 0 -10 7v2q1 2 1 3l173 979q3 12 13 12h18z"/>
<glyph glyph-name="braceright" horiz-adv-x="303" unicode="}" d="M164 856q55 0 79.5 -20.5t24.5 -63.5q0 -22 -4 -42l-45 -252q-3 -18 -3 -33q0 -69 77 -69h10q9 0 9 -7v-2q-1 -2 -1 -3l-4 -20q0 -12 -12 -12h-10q-50 0 -75 -25t-34 -77l-44 -251q-12 -66 -45.5 -96t-100.5 -30h-44q-10 0 -10 7v2q1 2 1 3l3 16q1 12 14 12h43 q44 0 66.5 21.5t30.5 66.5l45 254q17 96 86 120q-48 19 -48 80q0 10 4 38l45 255q3 17 3 29q0 59 -69 59h-44q-11 0 -10 12l3 16q3 12 14 12h45z"/>
<glyph glyph-name="asciitilde" horiz-adv-x="560" unicode="~" d="M70 314q65 50 125 50q41 0 93 -22.5t85 -22.5q50 0 100 40q10 7 17 -1l10 -11q3 -3 3 -7q0 -5 -6 -11q-65 -49 -126 -49q-41 0 -93.5 22t-85.5 22q-48 0 -98 -40q-5 -4 -9 -4q-3 0 -8 5l-10 11q-3 4 -3 8q0 6 6 10z"/>
<glyph glyph-name="exclamdown" horiz-adv-x="178" unicode="¡" d="M-18 -231q-10 0 -9 12l106 566q3 12 14 12h11q12 0 9 -12l-94 -566q-1 -12 -14 -12h-23zM112 454q-23 0 -23 16q0 7 1 11l1 6q2 16 9 21.5t23 5.5h5q23 0 23 -16q0 -7 -1 -11v-6q-5 -27 -33 -27h-5z"/>
<glyph glyph-name="cent" horiz-adv-x="530" unicode="¢" d="M445 146q10 -4 4 -16q-63 -134 -214 -143l-11 -59q-3 -12 -14 -12h-20q-12 0 -9 12l10 59q-78 4 -118.5 44.5t-40.5 108.5q0 24 4 45l27 153q33 177 223 187l13 73q1 12 14 12h20q11 0 10 -12l-14 -73q79 -4 120 -40.5t41 -99.5q0 -8 -9 -12l-17 -6q-12 -4 -15 8 q-8 59 -41.5 86t-106.5 27q-83 0 -133 -40.5t-62 -112.5l-28 -156q-3 -18 -3 -35q0 -56 36.5 -87.5t107.5 -31.5t117 29t75 90q5 12 17 8z"/>
<glyph glyph-name="sterling" horiz-adv-x="628" unicode="£" d="M194 545q14 80 74 129.5t164 49.5q81 0 136 -39.5t55 -120.5q0 -8 -11 -12l-18 -6q-11 -4 -15 8q-13 71 -49 99t-104 28q-82 0 -128 -38.5t-57 -101.5l-32 -182h277q13 0 10 -13l-3 -15q-1 -13 -14 -13h-277l-30 -168q-12 -72 -69 -108v-2q99 3 117 3h300q12 0 11 -12 l-4 -18q-1 -13 -14 -13h-511q-11 0 -11 8l1 2v3l4 18q0 11 10 11h21q41 2 65.5 34t31.5 73l30 169h-84q-7 0 -9.5 2.5t-1.5 10.5l3 15q3 13 15 13h84z"/>
<glyph glyph-name="currency" horiz-adv-x="594" unicode="¤" d="M489 337q3 18 3 34q0 66 -43.5 108.5t-112.5 42.5q-78 0 -141.5 -53.5t-77.5 -131.5q-3 -17 -3 -33q0 -67 44 -110.5t113 -43.5q78 0 141 54.5t77 132.5zM189 511q71 52 152 52q80 0 134 -52l66 56q7 5 9 5q5 0 8 -5l11 -13q4 -4 4 -8t-6 -9l-67 -56q33 -47 33 -107 q0 -18 -3 -38q-13 -80 -76 -143l46 -55q7 -8 -3 -17l-16 -14q-5 -5 -8 -5q-5 0 -8 5l-46 56q-74 -54 -153 -54q-82 0 -135 53l-67 -57q-5 -5 -8 -5q-5 0 -8 5l-11 14q-4 4 -4 7q0 4 6 9l68 58q-34 46 -34 107q0 18 3 36q15 82 77 144l-46 56q-7 8 3 16l16 14q5 4 9 4t8 -4z "/>
<glyph glyph-name="yen" horiz-adv-x="635" unicode="¥" d="M662 710q8 0 8 -6q0 -2 -3 -7l-306 -358h147q10 0 9 -12l-2 -12q-3 -11 -13 -11h-165l-19 -108h165q10 0 9 -12l-2 -12q-1 -11 -14 -11h-164l-26 -148q-3 -13 -15 -13h-21q-13 0 -10 13l25 148h-166q-10 0 -9 11l3 12q1 12 13 12h166l19 108h-166q-12 0 -9 11l2 12 q1 12 13 12h148l-178 358q-6 13 8 13h23q18 0 22 -11l168 -345l291 345q8 11 25 11h24z"/>
<glyph glyph-name="brokenbar" horiz-adv-x="191" unicode="¦" d="M101 279q11 0 10 -12l-71 -401q-3 -12 -14 -12h-18q-10 0 -10 7v2q1 2 1 3l71 401q1 12 13 12h18zM203 856q10 0 10 -7l-1 -2v-3l-71 -401q-1 -12 -13 -12h-18q-10 0 -10 7v2q1 2 1 3l70 401q3 12 14 12h18z"/>
<glyph glyph-name="section" horiz-adv-x="590" unicode="§" d="M309 380q-52 6 -75 10q-15 -4 -31 -11t-40.5 -22t-43 -42t-24.5 -61q-2 -9 -2 -25q0 -29 13.5 -49t41.5 -30.5t53 -15.5t67 -9q68 -7 80 -10q14 5 28.5 13t37 24.5t39.5 42.5t22 57q2 9 2 24q0 37 -26 60t-59 31t-83 13zM107 560q14 80 78.5 125t180.5 45q175 0 207 -163 q1 -2 1 -6q0 -7 -10 -11l-18 -7q-12 -5 -16 8q-27 136 -172 136q-180 0 -204 -132q-3 -15 -3 -27q0 -24 10.5 -42t24.5 -28t41 -17.5t46 -10.5t53 -7q43 -5 73 -12t61.5 -21t48 -40t16.5 -63q0 -15 -3 -33q-18 -100 -127 -154q85 -29 85 -115q0 -10 -4 -38q-13 -79 -80 -125 t-185 -46q-193 0 -221 172v2q-1 1 -1 2q0 9 12 12l20 7q14 4 15 -9q25 -142 179 -142q97 0 151 35t64 97q3 15 3 27q0 25 -11 42.5t-25 27.5t-42.5 17.5t-47 9.5t-54.5 6q-37 4 -61.5 8t-55 13.5t-48.5 23t-30.5 37t-12.5 54.5q0 16 3 34q20 108 141 156q-85 28 -85 115 q0 17 3 37z"/>
<glyph glyph-name="dieresis" horiz-adv-x="439" unicode="¨" d="M388 676q20 0 20 -17v-6l-2 -7q-4 -22 -27 -22h-5q-21 0 -21 13q0 6 1 9l1 7q4 23 28 23h5zM198 676q19 0 19 -14q0 -5 -1 -9l-1 -7q-2 -13 -7.5 -17.5t-19.5 -4.5h-6q-19 0 -19 13q0 5 1 9l1 7q3 23 26 23h7z"/>
<glyph glyph-name="copyright" horiz-adv-x="811" unicode="©" d="M265 409q12 67 59 104t123 37q122 0 135 -102q0 -10 -8 -13l-13 -4q-11 -3 -11 6q-6 45 -30 63.5t-80 18.5q-122 0 -143 -112l-21 -120q-2 -9 -2 -26q0 -87 106 -87q53 0 86 21t53 67q6 8 16 6l10 -4q8 -4 4 -12q-49 -109 -174 -109q-66 0 -100 30t-34 84q0 15 3 33z M743 351q6 32 6 61q0 118 -76.5 193t-198.5 75q-140 0 -251.5 -94.5t-136.5 -234.5q-6 -31 -6 -61q0 -117 77 -193t200 -76q139 0 250.5 95.5t135.5 234.5zM56 351q27 152 148.5 255.5t273.5 103.5q133 0 217 -83t84 -211q0 -32 -6 -65q-27 -152 -148 -255.5t-272 -103.5 q-134 0 -218.5 83.5t-84.5 211.5q0 31 6 64z"/>
<glyph glyph-name="ordfeminine" horiz-adv-x="369" unicode="ª" d="M307 499q-36 6 -91 6q-92 0 -104 -65q-1 -4 -1 -11q0 -45 82 -45q46 0 77 11q22 9 25 32zM119 611q50 59 131 59q104 0 104 -88q0 -10 -4 -38l-20 -122q-4 -22 -13 -32t-30 -20q-35 -15 -98 -15q-113 0 -113 69q0 6 2 18q9 45 42 67.5t102 22.5q52 0 91 -6l3 22 q3 16 3 29q0 62 -75 62q-59 0 -100 -47q-7 -4 -13 -2l-10 5q-10 6 -2 16z"/>
<glyph glyph-name="guillemotleft" horiz-adv-x="551" unicode="«" d="M459 77q7 -9 -3 -16l-13 -10q-8 -4 -9 -4q-4 0 -7 4l-168 204q-6 7 3 15l241 206q5 3 8 3q4 0 7 -3l10 -15q3 -3 3 -7q0 -3 -7 -9l-216 -185zM234 77q8 -9 -2 -16l-13 -10q-8 -4 -9 -4q-4 0 -7 4l-169 204q-3 5 -3 7q0 4 6 8l241 206q6 3 9 3t6 -3l10 -15q3 -4 3 -7 q0 -4 -6 -9l-217 -185z"/>
<glyph glyph-name="logicalnot" horiz-adv-x="575" unicode="¬" d="M510 378q11 0 11 -7l-1 -2v-3l-38 -215q-1 -11 -13 -11h-20q-12 0 -11 11l34 186h-386q-11 0 -10 12l4 17q1 12 13 12h417z"/>
<glyph glyph-name="registered" horiz-adv-x="487" unicode="®" d="M295 510q47 0 56 44q1 3 1 10q0 33 -42 33h-70l-15 -87h70zM314 619q60 0 60 -52q0 -9 -1 -14q-9 -52 -58 -61l28 -70q5 -9 -6 -9h-8q-7 0 -10 5l-27 71h-71l-12 -71q-2 -5 -7 -5h-11q-5 0 -5 5l34 192q1 9 11 9h83zM109 516q-3 -15 -3 -30q0 -61 41 -102t105 -41 q76 0 132 50t69 123q3 16 3 32q0 60 -40.5 100t-102.5 40q-78 0 -134.5 -49.5t-69.5 -122.5zM86 516q14 81 78.5 137.5t149.5 56.5q71 0 117 -46.5t46 -115.5q0 -16 -3 -32q-14 -82 -77 -138t-148 -56q-72 0 -119 46.5t-47 115.5q0 16 3 32z"/>
<glyph glyph-name="macron" horiz-adv-x="352" unicode="¯" d="M365 666q7 0 9 -2t1 -9l-2 -11q-3 -11 -14 -11h-237q-10 0 -10 6v2q1 2 1 3l2 11q1 11 12 11h238z"/>
<glyph glyph-name="degree" horiz-adv-x="380" unicode="°" d="M124 555q-2 -14 -2 -20q0 -38 26 -63.5t66 -25.5q44 0 82 32.5t46 76.5q2 12 2 19q0 39 -25.5 64.5t-65.5 25.5q-46 0 -83.5 -32t-45.5 -77zM378 553q-10 -59 -59.5 -101.5t-108.5 -42.5q-54 0 -89 35.5t-35 88.5q0 9 2 25q10 61 59 101.5t110 40.5q54 0 88.5 -34.5 t34.5 -87.5q0 -7 -2 -25z"/>
<glyph glyph-name="plusminus" horiz-adv-x="656" unicode="±" d="M530 171q13 0 10 -13l-2 -13q-1 -12 -14 -12h-447q-12 0 -11 12l2 13q3 13 15 13h447zM573 415q11 0 11 -7q0 -1 -0.5 -3t-0.5 -3l-2 -13q-1 -12 -14 -12h-203l-23 -130q-3 -13 -15 -13h-15q-13 0 -10 13l23 130h-204q-12 0 -11 12l2 13q3 13 15 13h205l23 133 q3 13 15 13h15q13 0 10 -13l-24 -133h203z"/>
<glyph glyph-name="twosuperior" horiz-adv-x="346" unicode="²" d="M111 707q0 1 5 10t10.5 17.5t15 21.5t21.5 23t27.5 19t36.5 14.5t44 5.5q56 0 85 -27t29 -70q0 -6 -2 -22q-4 -22 -14.5 -39.5t-21.5 -28.5t-31.5 -21t-34 -15t-39.5 -13l-65 -22q-61 -21 -71 -79l-7 -33h224q12 0 11 -11l-3 -12q-1 -11 -14 -11h-246q-12 0 -12 9l1 1v3 l8 43q16 89 98 118l65 23q3 1 21.5 7.5t23 8.5t18.5 8t19 11l13.5 13.5t12.5 18.5t6 22q1 6 1 17q0 30 -20.5 48t-60.5 18q-21 0 -39.5 -6.5t-31 -15.5t-22.5 -20.5t-15 -20.5t-9 -16l-3 -8q-6 -12 -17 -9l-11 4q-13 3 -6 16z"/>
<glyph glyph-name="threesuperior" horiz-adv-x="358" unicode="³" d="M108 708q27 57 67.5 83.5t102.5 26.5q51 0 78.5 -25t27.5 -67q0 -6 -2 -22q-10 -62 -65 -87q46 -25 46 -80q0 -7 -2 -21q-9 -51 -48.5 -80.5t-106.5 -29.5q-63 0 -94.5 27t-38.5 81q0 1 -0.5 3t-0.5 3q0 7 10 10l13 5q13 3 15 -9q5 -46 27.5 -66t73.5 -20q48 0 77.5 22 t35.5 59q2 12 2 17q0 26 -15.5 43t-43.5 17h-71q-7 0 -8.5 2.5t-0.5 9.5l2 10q1 8 3.5 10t10.5 2h68q32 0 51 20.5t25 50.5q1 6 1 16q0 30 -19.5 47.5t-55.5 17.5q-92 0 -132 -86q-6 -14 -19 -9l-9 3q-11 5 -5 16z"/>
<glyph glyph-name="acute" horiz-adv-x="257" unicode="´" d="M283 723q10 4 14 4t9 -5l7 -11q4 -6 4 -8q0 -4 -8 -7l-196 -103q-8 -2 -9 -2q-4 0 -7 4l-5 8q-3 3 -3 6t7 7z"/>
<glyph glyph-name="mu" horiz-adv-x="542" unicode="µ" d="M503 512q11 0 10 -11l-75 -429q-4 -22 -14 -33t-34 -21q-83 -33 -175 -33q-121 0 -147 91l-50 -284q-3 -12 -14 -12h-20q-9 0 -9 7l1 2v3l124 709q3 11 14 11h20q12 0 9 -11l-56 -321q-4 -21 -4 -44q0 -112 132 -112q83 0 154 27q23 9 28 33l73 417q3 11 14 11h19z"/>
<glyph glyph-name="paragraph" horiz-adv-x="362" unicode="¶" d="M344 710q11 0 10 -12l-137 -775q-3 -12 -14 -12h-18q-11 0 -10 12l131 743h-52l-131 -743q-1 -12 -14 -12h-17q-10 0 -9 12l103 586q-38 1 -60 23t-22 58q0 7 2 21q8 46 40.5 72.5t78.5 26.5h119z"/>
<glyph glyph-name="periodcentered" horiz-adv-x="193" unicode="·" d="M99 297q23 0 23 -18q0 -6 -1 -9l-2 -6q-2 -16 -9 -21.5t-23 -5.5h-5q-24 0 -24 15q0 2 2 12l1 6q5 27 33 27h5z"/>
<glyph glyph-name="cedilla" horiz-adv-x="251" unicode="¸" d="M56 -84q13 4 32 4q37 0 57 -15.5t20 -42.5q0 -5 -2 -17q-9 -45 -44 -68.5t-84 -23.5q-50 0 -80 23q-8 5 -7 16l2 13q2 10 8 4q31 -27 77 -27q37 0 61.5 17.5t30.5 48.5q0 2 0.5 5t0.5 4q0 41 -62 41q-23 0 -38 -6q-8 -1 -10 2.5t2 11.5l52 94h29z"/>
<glyph glyph-name="onesuperior" horiz-adv-x="262" unicode="¹" d="M280 810q13 0 12 -12l-66 -372q-3 -12 -15 -12h-11q-12 0 -11 12l60 337l-139 -70q-11 -6 -17 4l-3 11q-1 2 -1 5q0 7 9 11l159 82q8 4 17 4h6z"/>
<glyph glyph-name="ordmasculine" horiz-adv-x="375" unicode="º" d="M326 553q2 12 2 19q0 65 -83 65q-46 0 -75 -22.5t-36 -61.5l-14 -80q-2 -12 -2 -18q0 -66 82 -66q96 0 112 84zM99 556q9 55 48 84.5t103 29.5q56 0 85 -24.5t29 -68.5q0 -14 -3 -29l-14 -78q-19 -114 -152 -114q-55 0 -84.5 25.5t-29.5 69.5q0 13 3 28z"/>
<glyph glyph-name="guillemotright" horiz-adv-x="554" unicode="»" d="M304 450q-7 8 4 15l14 11q8 4 9 4q3 0 7 -4l169 -206q2 -2 2 -6t-5 -9l-239 -203q-4 -4 -8 -4t-8 4l-12 14q-7 8 3 15l216 184zM79 450q-5 8 4 15l14 12q8 4 9 4q2 0 6 -4l170 -207q3 -4 3 -7t-6 -8l-239 -203q-5 -4 -10 -4q-3 0 -6 4l-12 14q-2 2 -2 6q0 5 5 9l216 184z "/>
<glyph glyph-name="onequarter" horiz-adv-x="821" unicode="¼" d="M662 144l36 205l-204 -205h168zM748 144q9 0 9 -5v-5l-1 -11q-2 -11 -13 -11h-51l-17 -101q-2 -11 -13 -11h-15q-7 0 -8.5 2t0.5 9l17 101h-200q-7 0 -9 2t-1 9l2 9q3 12 6 15l241 242q8 8 19 8h17q7 0 9 -2.5t0 -10.5l-42 -240h50zM702 710q9 0 9 -6q0 -2 -3 -7 l-504 -685q-8 -12 -26 -12h-15q-16 0 -6 13l504 685q8 12 23 12h18zM278 718q12 0 12 -7v-2q-1 -2 -1 -3l-65 -372q-3 -12 -15 -12h-12q-13 0 -10 12l60 337l-139 -70q-13 -6 -17 4l-3 10q-2 4 -2 6q0 6 10 11l159 82q7 4 17 4h6z"/>
<glyph glyph-name="onehalf" horiz-adv-x="886" unicode="½" d="M569 293q0 1 5 10.5t10.5 18t15 21t21.5 22.5t27.5 19.5t36.5 15t44 5.5q56 0 85 -26.5t29 -69.5q0 -7 -2 -23q-4 -22 -14 -40t-21 -28.5t-32 -21t-33.5 -15t-40.5 -13.5l-65 -22q-61 -20 -71 -79l-6 -32h223q13 0 11 -12l-2 -12q-3 -11 -14 -11h-246q-15 0 -12 13l8 43 q16 89 98 118l65 23q3 1 21.5 7.5t23 8.5t18.5 8t19 11l13.5 13.5t12.5 18.5t6 22q1 6 1 17q0 30 -20.5 48t-60.5 18q-21 0 -39.5 -6.5t-30.5 -15.5t-22 -20.5t-15 -20.5t-9 -16l-4 -8q-6 -11 -17 -9l-11 4q-13 3 -6 16zM702 710q9 0 9 -6q0 -4 -2 -7l-504 -685 q-10 -12 -26 -12h-16q-16 0 -6 13l504 685q8 12 24 12h17zM278 718q12 0 12 -7v-2q-1 -2 -1 -3l-65 -372q-3 -12 -15 -12h-12q-13 0 -10 12l60 337l-139 -70q-13 -6 -17 4l-3 10q-2 4 -2 6q0 6 10 11l159 82q7 4 17 4h6z"/>
<glyph glyph-name="threequarters" horiz-adv-x="873" unicode="¾" d="M716 144l36 205l-204 -205h168zM802 144q7 0 9 -2t1 -9l-2 -10q-2 -12 -13 -12h-51l-17 -100q-2 -11 -13 -11h-15q-7 0 -8.5 2t0.5 9l17 100h-200q-11 0 -10 12l2 9q3 11 6 14l241 243q7 7 19 7h17q7 0 9 -2t0 -10l-42 -240h50zM758 710q9 0 9 -6q0 -2 -3 -7l-503 -685 q-10 -12 -27 -12h-15q-16 0 -6 13l504 685q8 12 23 12h18zM100 616q26 58 66.5 84t102.5 26q51 0 79 -25t28 -67q0 -6 -2 -22q-10 -62 -65 -87q45 -25 45 -78q0 -6 -2 -22q-8 -52 -47.5 -81.5t-106.5 -29.5q-63 0 -94.5 27t-38.5 81q0 1 -0.5 3t-0.5 3q0 7 10 10l13 5 q13 3 14 -9q5 -46 28 -66t74 -20q48 0 77 22t36 59q2 12 2 17q0 26 -15.5 43t-43.5 17h-71q-7 0 -9 2.5t-1 9.5l3 10q1 6 2 8t3.5 3t8.5 1h68q31 0 50.5 20.5t25.5 51.5q1 6 1 16q0 30 -19.5 47t-55.5 17q-92 0 -132 -86q-6 -14 -19 -9l-10 3q-10 4 -4 16z"/>
<glyph glyph-name="questiondown" horiz-adv-x="549" unicode="¿" d="M454 -66q-92 -164 -275 -164q-97 0 -151 48t-54 123q0 18 3 36q8 46 26 82t44.5 61.5t49.5 42t55 35.5q6 3 9 5q38 23 58 37.5t42.5 45.5t29.5 71q2 12 13 12h16q7 0 9 -2.5t1 -9.5q-8 -49 -34 -86.5t-49 -55t-66 -43.5q-36 -23 -52.5 -34t-43 -35.5t-41 -55t-21.5 -70.5 q-3 -16 -3 -32q0 -59 42 -96.5t120 -37.5q155 0 233 138q9 13 18 8l16 -7q7 -4 7 -8q0 -2 -2 -8zM324 455q-23 0 -23 16q0 7 1 11l1 5q2 16 9 22t23 6h5q13 0 18 -3t5 -13q0 -7 -1 -12v-5q-3 -16 -10 -21.5t-23 -5.5h-5z"/>
<glyph glyph-name="Agrave" d="M384 626q-2 12 -2 31v12h-2q0 -1 -2.5 -8t-6 -16.5t-7.5 -18.5l-205 -355h305zM568 12q2 -12 -11 -12h-17q-19 0 -20 11l-50 221h-332l-127 -221q-6 -11 -25 -11h-18q-10 0 -10 5q0 3 3 7l398 691q7 12 19 12h20q12 0 15 -12zM324 886q5 5 11 5q7 0 12 -4l153 -103 q5 -3 5 -6q0 -2 -6 -8l-6 -6q-4 -4 -8 -4q-3 0 -8 3l-164 98q-6 1 -6 5q0 2 7 9z" unicode="À"/>
<glyph glyph-name="Aacute" d="M384 626q-2 12 -2 31v12h-2q0 -1 -2.5 -8t-6 -16.5t-7.5 -18.5l-205 -355h305zM568 12q2 -12 -11 -12h-17q-19 0 -20 11l-50 221h-332l-127 -221q-6 -11 -25 -11h-18q-10 0 -10 5q0 3 3 7l398 691q7 12 19 12h20q12 0 15 -12zM490 895q6 3 12 3t10 -5l7 -11q4 -4 4 -8 t-8 -7l-196 -102q-8 -2 -9 -2q-4 0 -7 3l-5 8q-2 3 -2 7t6 7z" unicode="Á"/>
<glyph glyph-name="Acircumflex" d="M384 626q-2 12 -2 31v12h-2q0 -1 -2.5 -8t-6 -16.5t-7.5 -18.5l-205 -355h305zM568 12q2 -12 -11 -12h-17q-19 0 -20 11l-50 221h-332l-127 -221q-6 -11 -25 -11h-18q-10 0 -10 5q0 3 3 7l398 691q7 12 19 12h20q12 0 15 -12zM424 897q12 0 22 -11l113 -112q1 -2 1 -4 q0 -6 -10 -6h-16q-13 0 -19 7l-97 95l-133 -95q-8 -7 -21 -7h-20q-9 0 -9 4q0 3 4 6l154 112q12 11 25 11h6z" unicode="Â"/>
<glyph glyph-name="Atilde" d="M384 626q-2 12 -2 31v12h-2q0 -1 -2.5 -8t-6 -16.5t-7.5 -18.5l-205 -355h305zM568 12q2 -12 -11 -12h-17q-19 0 -20 11l-50 221h-332l-127 -221q-6 -11 -25 -11h-18q-10 0 -10 5q0 3 3 7l398 691q7 12 19 12h20q12 0 15 -12zM561 875q7 0 7 -4v-1q-1 -2 -1 -3 q-16 -94 -90 -94q-24 0 -44 11.5t-32 24.5t-29.5 24.5t-37.5 11.5q-23 0 -39 -17.5t-21 -46.5q-1 -8 -9 -8h-14q-7 0 -7 5q0 43 29 70t63 27q30 0 54 -18t44.5 -36t44.5 -18q49 0 59 64q1 8 10 8h13z" unicode="Ã"/>
<glyph glyph-name="Adieresis" d="M384 626q-2 12 -2 31v12h-2q0 -1 -2.5 -8t-6 -16.5t-7.5 -18.5l-205 -355h305zM568 12q2 -12 -11 -12h-17q-19 0 -20 11l-50 221h-332l-127 -221q-6 -11 -25 -11h-18q-10 0 -10 5q0 3 3 7l398 691q7 12 19 12h20q12 0 15 -12zM511 853q20 0 20 -15q0 -5 -1 -8l-1 -7 q-5 -22 -28 -22h-5q-20 0 -20 12q0 6 1 10l1 7q3 23 27 23h6zM320 853q20 0 20 -15q0 -1 -0.5 -3.5t-0.5 -4.5l-1 -7q-3 -13 -8.5 -17.5t-18.5 -4.5h-7q-19 0 -19 13q0 6 1 9l1 7q4 23 27 23h6z" unicode="Ä"/>
<glyph glyph-name="Aring" d="M384 626q-2 12 -2 31v12h-2q0 -1 -2.5 -8t-6 -16.5t-7.5 -18.5l-205 -355h305zM473 787q2 12 2 17q0 26 -16.5 41t-45.5 15q-35 0 -58.5 -19t-29.5 -54q-2 -12 -2 -16q0 -26 17 -41t47 -15q34 0 57.5 19.5t28.5 52.5zM296 789q8 45 41 71.5t81 26.5q40 0 62.5 -21 t22.5 -57q0 -7 -2 -23q-12 -76 -87 -91l154 -683q2 -12 -11 -12h-17q-19 0 -20 11l-50 221h-332l-127 -221q-6 -11 -25 -11h-18q-10 0 -10 5q0 3 3 7l394 682q-61 14 -61 76q0 5 2 19z" unicode="Å"/>
<glyph glyph-name="AE" horiz-adv-x="816" unicode="Æ" d="M414 226l74 412l-320 -412h246zM722 43q13 0 10 -12l-3 -18q-3 -13 -15 -13h-327q-7 0 -9.5 2.5t-1.5 10.5l31 174h-269l-137 -176q-10 -11 -25 -11h-20q-10 0 -10 5q0 3 3 7l536 686q10 12 19 12h321q12 0 12 -8l-1 -2v-3l-4 -18q-1 -12 -14 -12h-282l-50 -286h238 q13 0 10 -13l-3 -18q-3 -12 -15 -12h-238l-52 -295h296z"/>
<glyph glyph-name="Ccedilla" horiz-adv-x="632" unicode="Ç" d="M402 724q113 0 167 -43.5t64 -131.5q0 -1 0.5 -2.5t0.5 -2.5q0 -8 -11 -11l-17 -6q-14 -4 -15 8q-10 76 -54.5 111t-139.5 35q-109 0 -175.5 -53t-83.5 -149l-42 -245q-5 -28 -5 -48q0 -75 48.5 -115.5t142.5 -40.5q97 0 154 36.5t94 113.5q7 12 18 8l19 -7q11 -4 5 -17 q-40 -86 -102.5 -130t-170.5 -48l-38 -71q18 4 32 4q36 0 56 -16t20 -43q0 -5 -2 -17q-9 -44 -43.5 -67.5t-84.5 -23.5q-48 0 -80 22q-9 6 -6 16l2 13q2 10 8 5q29 -27 77 -27q37 0 61.5 17.5t29.5 48.5q0 1 0.5 4t0.5 5q0 40 -61 40q-25 0 -39 -5q-8 -2 -9.5 2t2.5 11 l45 82q-109 2 -167.5 53.5t-58.5 141.5q0 22 5 54l43 245q21 116 100.5 180t209.5 64z"/>
<glyph glyph-name="Egrave" horiz-adv-x="569" unicode="È" d="M576 710q11 0 11 -8l-1 -2v-3l-4 -18q-1 -12 -14 -12h-375l-50 -286h331q14 0 11 -12l-4 -18q-3 -13 -15 -13h-331l-52 -295h389q13 0 10 -12l-3 -18q-3 -13 -15 -13h-422q-11 0 -11 7q0 1 0.5 3t0.5 3l121 684q1 13 14 13h409zM309 886q5 5 11 5q7 0 12 -4l153 -103 q4 -4 4 -6q0 -3 -5 -8l-7 -6q-4 -4 -8 -4q-3 0 -8 3l-163 98q-6 3 -6 5q0 3 6 9z"/>
<glyph glyph-name="Eacute" horiz-adv-x="569" unicode="É" d="M576 710q11 0 11 -8l-1 -2v-3l-4 -18q-1 -12 -14 -12h-375l-50 -286h331q14 0 11 -12l-4 -18q-3 -13 -15 -13h-331l-52 -295h389q13 0 10 -12l-3 -18q-3 -13 -15 -13h-422q-11 0 -11 7q0 1 0.5 3t0.5 3l121 684q1 13 14 13h409zM474 895q6 3 13 3q6 0 10 -5l7 -11 q3 -4 3 -7q0 -5 -8 -8l-195 -102q-8 -2 -10 -2q-3 0 -6 3l-5 8q-3 4 -3 7q0 4 6 7z"/>
<glyph glyph-name="Ecircumflex" horiz-adv-x="569" unicode="Ê" d="M576 710q11 0 11 -8l-1 -2v-3l-4 -18q-1 -12 -14 -12h-375l-50 -286h331q14 0 11 -12l-4 -18q-3 -13 -15 -13h-331l-52 -295h389q13 0 10 -12l-3 -18q-3 -13 -15 -13h-422q-11 0 -11 7q0 1 0.5 3t0.5 3l121 684q1 13 14 13h409zM408 897q12 0 22 -11l113 -112q2 -4 2 -5 q0 -5 -10 -5h-16q-13 0 -19 7l-98 95l-133 -95q-8 -7 -20 -7h-21q-9 0 -9 4q0 3 5 6l153 112q13 11 25 11h6z"/>
<glyph glyph-name="Edieresis" horiz-adv-x="569" unicode="Ë" d="M576 710q11 0 11 -8l-1 -2v-3l-4 -18q-1 -12 -14 -12h-375l-50 -286h331q14 0 11 -12l-4 -18q-3 -13 -15 -13h-331l-52 -295h389q13 0 10 -12l-3 -18q-3 -13 -15 -13h-422q-11 0 -11 7q0 1 0.5 3t0.5 3l121 684q1 13 14 13h409zM495 853q20 0 20 -17v-6l-2 -7 q-4 -22 -27 -22h-6q-20 0 -20 13q0 6 1 9l1 7q2 13 8 18t20 5h5zM304 853q20 0 20 -14q0 -5 -1 -9l-1 -7q-2 -13 -7.5 -17.5t-19.5 -4.5h-6q-20 0 -20 14q0 5 1 8l2 7q3 23 26 23h6z"/>
<glyph glyph-name="Igrave" horiz-adv-x="212" unicode="Ì" d="M153 697q1 13 14 13h21q12 0 11 -13l-121 -684q-3 -13 -15 -13h-21q-11 0 -11 7q0 1 0.5 3t0.5 3zM114 886q5 5 11 5q7 0 12 -4l153 -103q4 -3 4 -5q0 -4 -5 -9l-6 -6q-4 -4 -8 -4q-3 0 -8 3l-164 98q-6 1 -6 5q0 2 7 9z"/>
<glyph glyph-name="Iacute" horiz-adv-x="212" unicode="Í" d="M153 697q1 13 14 13h21q12 0 11 -13l-121 -684q-3 -13 -15 -13h-21q-11 0 -11 7q0 1 0.5 3t0.5 3zM280 895q6 3 12 3t10 -5l7 -11q3 -4 3 -8t-7 -7l-196 -102q-8 -2 -9 -2q-4 0 -7 3l-5 8q-2 3 -2 7t6 7z"/>
<glyph glyph-name="Icircumflex" horiz-adv-x="212" unicode="Î" d="M153 697q1 13 14 13h21q12 0 11 -13l-121 -684q-3 -13 -15 -13h-21q-13 0 -10 13zM213 897q13 0 23 -11l112 -112q2 -4 2 -5q0 -5 -10 -5h-16q-13 0 -19 7l-98 95l-132 -95q-8 -7 -21 -7h-20q-9 0 -9 4q0 3 4 6l153 112q13 11 26 11h5z"/>
<glyph glyph-name="Idieresis" horiz-adv-x="212" unicode="Ï" d="M153 697q1 13 14 13h21q12 0 11 -13l-121 -684q-3 -13 -15 -13h-21q-11 0 -11 7q0 1 0.5 3t0.5 3zM301 853q20 0 20 -15q0 -5 -1 -8l-1 -7q-5 -22 -28 -22h-5q-21 0 -21 13q0 6 1 9l2 7q3 23 27 23h6zM110 853q20 0 20 -15q0 -1 -0.5 -3.5t-0.5 -4.5l-1 -7 q-3 -13 -8.5 -17.5t-18.5 -4.5h-7q-19 0 -19 13q0 5 1 9l1 7q4 23 27 23h6z"/>
<glyph glyph-name="Eth" horiz-adv-x="655" unicode="Ð" d="M578 446q5 30 5 51q0 82 -53 126t-156 44h-172l-51 -293h192q8 0 7 -10l-3 -13q-1 -10 -11 -10h-192l-52 -298h172q116 0 189.5 58t92.5 163zM380 710q120 0 184.5 -56t64.5 -154q0 -28 -6 -59l-32 -182q-22 -123 -109 -191t-227 -68h-204q-13 0 -10 13l57 328h-80 q-10 0 -9 10l3 13q2 10 12 10h81l57 323q1 13 14 13h204z"/>
<glyph glyph-name="Ntilde" horiz-adv-x="689" unicode="Ñ" d="M664 710q12 0 12 -8v-2q-1 -2 -1 -3l-121 -684q-3 -13 -15 -13h-20q-10 0 -13 8l-264 506q-12 24 -30.5 70t-26.5 60h-3q-3 -19 -10 -76t-12 -89l-83 -466q-3 -13 -15 -13h-20q-11 0 -11 7q0 1 0.5 3t0.5 3l121 684q1 13 14 13h17q9 0 14 -7l258 -493q16 -30 38 -80.5 t28 -62.5h3q3 16 10 78.5t14 101.5l80 451q3 12 15 12h20zM589 875q7 0 7 -5q0 -43 -28 -70t-63 -27q-24 0 -44 11.5t-32 24.5t-29.5 24.5t-37.5 11.5q-23 0 -39 -17.5t-21 -46.5q-1 -8 -9 -8h-14q-7 0 -7 4v1q1 2 1 3q16 94 91 94q30 0 54 -18t44.5 -36t44.5 -18 q49 0 59 64q3 8 10 8h13z"/>
<glyph glyph-name="Ograve" horiz-adv-x="663" unicode="Ò" d="M586 477q5 28 5 48q0 75 -49 115.5t-143 40.5q-109 0 -175.5 -53t-83.5 -151l-44 -244q-4 -21 -4 -46q0 -76 49.5 -117t143.5 -41q107 0 174 53.5t84 150.5zM94 481q20 116 100 179.5t211 63.5q112 0 172 -52t60 -144q0 -24 -5 -56l-43 -244q-20 -116 -100 -179t-209 -63 q-114 0 -174.5 52t-60.5 144q0 23 5 55zM343 896q5 5 12 5t12 -4l152 -103q5 -3 5 -6q0 -2 -6 -8l-6 -6q-4 -4 -8 -4q-3 0 -8 3l-163 98q-6 3 -6 5q0 3 6 9z"/>
<glyph glyph-name="Oacute" horiz-adv-x="663" unicode="Ó" d="M586 477q5 28 5 48q0 75 -49 115.5t-143 40.5q-109 0 -175.5 -53t-83.5 -151l-44 -244q-4 -21 -4 -46q0 -76 49.5 -117t143.5 -41q107 0 174 53.5t84 150.5zM94 481q20 116 100 179.5t211 63.5q112 0 172 -52t60 -144q0 -24 -5 -56l-43 -244q-20 -116 -100 -179t-209 -63 q-114 0 -174.5 52t-60.5 144q0 23 5 55zM509 905q6 3 13 3q6 0 9 -5l7 -11q4 -4 4 -8t-8 -7l-195 -102q-8 -2 -10 -2q-3 0 -6 3l-6 8q-2 3 -2 7t6 7z"/>
<glyph glyph-name="Ocircumflex" horiz-adv-x="663" unicode="Ô" d="M586 477q5 28 5 48q0 75 -49 115.5t-143 40.5q-109 0 -175.5 -53t-83.5 -151l-44 -244q-4 -21 -4 -46q0 -76 49.5 -117t143.5 -41q107 0 174 53.5t84 150.5zM94 481q20 116 100 179.5t211 63.5q112 0 172 -52t60 -144q0 -24 -5 -56l-43 -244q-20 -116 -100 -179t-209 -63 q-114 0 -174.5 52t-60.5 144q0 23 5 55zM443 907q12 0 22 -11l113 -112q1 -2 1 -4q0 -6 -10 -6h-15q-14 0 -19 7l-98 95l-133 -95q-8 -7 -20 -7h-21q-9 0 -9 4q0 3 4 6l154 112q12 11 25 11h6z"/>
<glyph glyph-name="Otilde" horiz-adv-x="663" unicode="Õ" d="M586 477q5 28 5 48q0 75 -49 115.5t-143 40.5q-109 0 -175.5 -53t-83.5 -151l-44 -244q-4 -21 -4 -46q0 -76 49.5 -117t143.5 -41q107 0 174 53.5t84 150.5zM94 481q20 116 100 179.5t211 63.5q112 0 172 -52t60 -144q0 -24 -5 -56l-43 -244q-20 -116 -100 -179t-209 -63 q-114 0 -174.5 52t-60.5 144q0 23 5 55zM580 885q7 0 7 -5q0 -43 -28 -70t-63 -27q-24 0 -44 11.5t-32 24.5t-29.5 24.5t-37.5 11.5q-23 0 -38.5 -17.5t-20.5 -46.5q-3 -8 -10 -8h-14q-7 0 -7 4l1 1v3q16 94 91 94q31 0 54.5 -18t44 -36t44.5 -18q49 0 59 64q3 8 10 8h13z "/>
<glyph glyph-name="Odieresis" horiz-adv-x="663" unicode="Ö" d="M586 477q5 28 5 48q0 75 -49 115.5t-143 40.5q-109 0 -175.5 -53t-83.5 -151l-44 -244q-4 -21 -4 -46q0 -76 49.5 -117t143.5 -41q107 0 174 53.5t84 150.5zM94 481q20 116 100 179.5t211 63.5q112 0 172 -52t60 -144q0 -24 -5 -56l-43 -244q-20 -116 -100 -179t-209 -63 q-114 0 -174.5 52t-60.5 144q0 23 5 55zM530 863q20 0 20 -15q0 -5 -1 -8l-1 -7q-4 -22 -27 -22h-6q-20 0 -20 13q0 5 1 9l1 7q4 23 27 23h6zM339 863q20 0 20 -14q0 -5 -1 -9l-1 -7q-3 -13 -8.5 -17.5t-18.5 -4.5h-6q-20 0 -20 14q0 5 1 8l1 7q4 23 27 23h6z"/>
<glyph glyph-name="multiply" horiz-adv-x="503" unicode="×" d="M412 166q7 -10 -3 -18l-11 -9q-7 -5 -10 -5t-8 5l-129 158l-185 -157q-5 -5 -10 -5q-4 0 -8 5l-8 10q-4 4 -4 7q0 4 7 11l185 157l-130 157q-6 9 4 18l10 8q6 6 9 6q5 0 9 -6l130 -157l184 157q5 5 10 5q6 0 8 -5l9 -10q3 -4 3 -8t-7 -10l-185 -157z"/>
<glyph glyph-name="Oslash" horiz-adv-x="663" unicode="Ø" d="M586 477q4 20 4 44q0 47 -21 80l-431 -528q50 -44 147 -44q107 0 174 53.5t84 150.5zM552 629q-47 52 -153 52q-109 0 -175.5 -53t-83.5 -151l-44 -244q-4 -30 -4 -42q0 -55 29 -92zM683 749q3 0 3 -2q0 -1 -2 -3l-81 -100q34 -46 34 -116q0 -23 -5 -56l-43 -244 q-20 -116 -100 -179t-209 -63q-113 0 -172 51l-61 -75q-4 -5 -13 -5h-23q-4 0 -4 2q0 1 2 3l77 95q-41 50 -41 124q0 24 5 56l44 244q20 116 100 179.5t211 63.5q119 0 178 -59l64 80q4 4 11 4h25z"/>
<glyph glyph-name="Ugrave" horiz-adv-x="681" unicode="Ù" d="M112 240q-5 -30 -5 -51q0 -76 46.5 -118.5t139.5 -42.5q107 0 171.5 56.5t82.5 155.5l81 457q1 13 14 13h21q12 0 12 -8l-1 -2v-3l-82 -462q-21 -119 -98.5 -184.5t-206.5 -65.5q-112 0 -169 53t-57 146q0 30 6 61l80 452q3 13 15 13h21q12 0 11 -13zM349 886q5 5 12 5 t12 -4l152 -103q5 -3 5 -6q0 -2 -6 -8l-6 -6q-4 -4 -8 -4q-3 0 -8 3l-163 98q-6 3 -6 5q0 3 6 9z"/>
<glyph glyph-name="Uacute" horiz-adv-x="681" unicode="Ú" d="M112 240q-5 -30 -5 -51q0 -76 46.5 -118.5t139.5 -42.5q107 0 171.5 56.5t82.5 155.5l81 457q1 13 14 13h21q12 0 12 -8l-1 -2v-3l-82 -462q-21 -119 -98.5 -184.5t-206.5 -65.5q-112 0 -169 53t-57 146q0 30 6 61l80 452q3 13 15 13h21q12 0 11 -13zM515 895q6 3 13 3 q6 0 9 -5l7 -11q4 -4 4 -8t-8 -7l-195 -102q-8 -2 -10 -2q-3 0 -6 3l-6 8q-2 3 -2 7t6 7z"/>
<glyph glyph-name="Ucircumflex" horiz-adv-x="681" unicode="Û" d="M112 240q-5 -30 -5 -51q0 -76 46.5 -118.5t139.5 -42.5q107 0 171.5 56.5t82.5 155.5l81 457q1 13 14 13h21q12 0 12 -8l-1 -2v-3l-82 -462q-21 -119 -98.5 -184.5t-206.5 -65.5q-112 0 -169 53t-57 146q0 30 6 61l80 452q3 13 15 13h21q12 0 11 -13zM449 897 q12 0 22 -11l113 -112q1 -2 1 -4q0 -6 -10 -6h-15q-14 0 -19 7l-98 95l-133 -95q-8 -7 -20 -7h-21q-9 0 -9 4q0 3 4 6l154 112q12 11 25 11h6z"/>
<glyph glyph-name="Udieresis" horiz-adv-x="681" unicode="Ü" d="M112 240q-5 -30 -5 -51q0 -76 46.5 -118.5t139.5 -42.5q107 0 171.5 56.5t82.5 155.5l81 457q1 13 14 13h21q12 0 12 -8l-1 -2v-3l-82 -462q-21 -119 -98.5 -184.5t-206.5 -65.5q-112 0 -169 53t-57 146q0 30 6 61l80 452q3 13 15 13h21q12 0 11 -13zM536 853 q20 0 20 -15q0 -5 -1 -8l-1 -7q-4 -22 -27 -22h-6q-20 0 -20 13q0 5 1 9l1 7q4 23 27 23h6zM345 853q20 0 20 -14q0 -5 -1 -9l-1 -7q-3 -13 -8.5 -17.5t-18.5 -4.5h-6q-20 0 -20 14q0 5 1 8l1 7q4 23 27 23h6z"/>
<glyph glyph-name="Yacute" horiz-adv-x="616" unicode="Ý" d="M666 710q8 0 8 -6q0 -1 -2 -7l-343 -405l-49 -279q-3 -13 -15 -13h-21q-13 0 -10 13l49 280l-198 404q-1 2 -1 5q0 8 10 8h24q18 0 23 -11l173 -359l301 359q8 11 25 11h26zM483 895q6 3 13 3q6 0 10 -5l7 -11q3 -4 3 -7q0 -5 -8 -8l-195 -102q-8 -2 -10 -2q-3 0 -6 3 l-5 8q-3 4 -3 7q0 4 6 7z"/>
<glyph glyph-name="Thorn" horiz-adv-x="615" unicode="Þ" d="M328 176q86 0 145.5 49t73.5 134q4 20 4 42q0 67 -41.5 105t-116.5 38h-222l-65 -368h222zM404 587q91 0 143 -48t52 -132q0 -21 -5 -53q-18 -104 -90.5 -162.5t-178.5 -58.5h-226l-21 -120q-3 -13 -15 -13h-21q-11 0 -11 7q0 1 0.5 3t0.5 3l121 684q1 13 14 13h21 q12 0 11 -13l-20 -110h225z"/>
<glyph glyph-name="germandbls" horiz-adv-x="545" unicode="ß" d="M111 529q18 103 79.5 162t159.5 59q174 0 174 -151q0 -21 -5 -53q-9 -52 -40 -96t-86 -63v-1q97 -29 97 -136q0 -20 -5 -48q-18 -100 -79 -151t-159 -51h-96q-13 0 -10 13l3 17q3 12 14 12h93q77 0 125.5 42t63.5 124q3 20 3 36q0 56 -33 87.5t-94 31.5h-97q-13 0 -10 13 l2 16q3 13 15 13h94q65 0 105 43.5t51 98.5q4 20 4 43q0 118 -137 118q-77 0 -126 -48t-64 -132l-91 -515q-3 -13 -15 -13h-17q-7 0 -9.5 2.5t-1.5 10.5z"/>
<glyph glyph-name="agrave" d="M384 626q-2 12 -2 31v12h-2q0 -1 -2.5 -8t-6 -16.5t-7.5 -18.5l-205 -355h305zM568 12q2 -12 -11 -12h-17q-19 0 -20 11l-50 221h-332l-127 -221q-6 -11 -25 -11h-18q-10 0 -10 5q0 3 3 7l398 691q7 12 19 12h20q12 0 15 -12zM324 886q5 5 11 5q7 0 12 -4l153 -103 q5 -3 5 -6q0 -2 -6 -8l-6 -6q-4 -4 -8 -4q-3 0 -8 3l-164 98q-6 1 -6 5q0 2 7 9z" unicode="à"/>
<glyph glyph-name="aacute" d="M384 626q-2 12 -2 31v12h-2q0 -1 -2.5 -8t-6 -16.5t-7.5 -18.5l-205 -355h305zM568 12q2 -12 -11 -12h-17q-19 0 -20 11l-50 221h-332l-127 -221q-6 -11 -25 -11h-18q-10 0 -10 5q0 3 3 7l398 691q7 12 19 12h20q12 0 15 -12zM490 895q6 3 12 3t10 -5l7 -11q4 -4 4 -8 t-8 -7l-196 -102q-8 -2 -9 -2q-4 0 -7 3l-5 8q-2 3 -2 7t6 7z" unicode="á"/>
<glyph glyph-name="acircumflex" d="M384 626q-2 12 -2 31v12h-2q0 -1 -2.5 -8t-6 -16.5t-7.5 -18.5l-205 -355h305zM568 12q2 -12 -11 -12h-17q-19 0 -20 11l-50 221h-332l-127 -221q-6 -11 -25 -11h-18q-10 0 -10 5q0 3 3 7l398 691q7 12 19 12h20q12 0 15 -12zM424 897q12 0 22 -11l113 -112q1 -2 1 -4 q0 -6 -10 -6h-16q-13 0 -19 7l-97 95l-133 -95q-8 -7 -21 -7h-20q-9 0 -9 4q0 3 4 6l154 112q12 11 25 11h6z" unicode="â"/>
<glyph glyph-name="atilde" d="M384 626q-2 12 -2 31v12h-2q0 -1 -2.5 -8t-6 -16.5t-7.5 -18.5l-205 -355h305zM568 12q2 -12 -11 -12h-17q-19 0 -20 11l-50 221h-332l-127 -221q-6 -11 -25 -11h-18q-10 0 -10 5q0 3 3 7l398 691q7 12 19 12h20q12 0 15 -12zM561 875q7 0 7 -4v-1q-1 -2 -1 -3 q-16 -94 -90 -94q-24 0 -44 11.5t-32 24.5t-29.5 24.5t-37.5 11.5q-23 0 -39 -17.5t-21 -46.5q-1 -8 -9 -8h-14q-7 0 -7 5q0 43 29 70t63 27q30 0 54 -18t44.5 -36t44.5 -18q49 0 59 64q1 8 10 8h13z" unicode="ã"/>
<glyph glyph-name="adieresis" d="M384 626q-2 12 -2 31v12h-2q0 -1 -2.5 -8t-6 -16.5t-7.5 -18.5l-205 -355h305zM568 12q2 -12 -11 -12h-17q-19 0 -20 11l-50 221h-332l-127 -221q-6 -11 -25 -11h-18q-10 0 -10 5q0 3 3 7l398 691q7 12 19 12h20q12 0 15 -12zM511 853q20 0 20 -15q0 -5 -1 -8l-1 -7 q-5 -22 -28 -22h-5q-20 0 -20 12q0 6 1 10l1 7q3 23 27 23h6zM320 853q20 0 20 -15q0 -1 -0.5 -3.5t-0.5 -4.5l-1 -7q-3 -13 -8.5 -17.5t-18.5 -4.5h-7q-19 0 -19 13q0 6 1 9l1 7q4 23 27 23h6z" unicode="ä"/>
<glyph glyph-name="aring" d="M384 626q-2 12 -2 31v12h-2q0 -1 -2.5 -8t-6 -16.5t-7.5 -18.5l-205 -355h305zM473 787q2 12 2 17q0 26 -16.5 41t-45.5 15q-35 0 -58.5 -19t-29.5 -54q-2 -12 -2 -16q0 -26 17 -41t47 -15q34 0 57.5 19.5t28.5 52.5zM296 789q8 45 41 71.5t81 26.5q40 0 62.5 -21 t22.5 -57q0 -7 -2 -23q-12 -76 -87 -91l154 -683q2 -12 -11 -12h-17q-19 0 -20 11l-50 221h-332l-127 -221q-6 -11 -25 -11h-18q-10 0 -10 5q0 3 3 7l394 682q-61 14 -61 76q0 5 2 19z" unicode="å"/>
<glyph glyph-name="ae" horiz-adv-x="816" unicode="æ" d="M414 226l74 412l-320 -412h246zM722 43q13 0 10 -12l-3 -18q-3 -13 -15 -13h-327q-7 0 -9.5 2.5t-1.5 10.5l31 174h-269l-137 -176q-10 -11 -25 -11h-20q-10 0 -10 5q0 3 3 7l536 686q10 12 19 12h321q12 0 12 -8l-1 -2v-3l-4 -18q-1 -12 -14 -12h-282l-50 -286h238 q13 0 10 -13l-3 -18q-3 -12 -15 -12h-238l-52 -295h296z"/>
<glyph glyph-name="ccedilla" horiz-adv-x="632" unicode="ç" d="M402 724q113 0 167 -43.5t64 -131.5q0 -1 0.5 -2.5t0.5 -2.5q0 -8 -11 -11l-17 -6q-14 -4 -15 8q-10 76 -54.5 111t-139.5 35q-109 0 -175.5 -53t-83.5 -149l-42 -245q-5 -28 -5 -48q0 -75 48.5 -115.5t142.5 -40.5q97 0 154 36.5t94 113.5q7 12 18 8l19 -7q11 -4 5 -17 q-40 -86 -102.5 -130t-170.5 -48l-38 -71q18 4 32 4q36 0 56 -16t20 -43q0 -5 -2 -17q-9 -44 -43.5 -67.5t-84.5 -23.5q-48 0 -80 22q-9 6 -6 16l2 13q2 10 8 5q29 -27 77 -27q37 0 61.5 17.5t29.5 48.5q0 1 0.5 4t0.5 5q0 40 -61 40q-25 0 -39 -5q-8 -2 -9.5 2t2.5 11 l45 82q-109 2 -167.5 53.5t-58.5 141.5q0 22 5 54l43 245q21 116 100.5 180t209.5 64z"/>
<glyph glyph-name="egrave" horiz-adv-x="569" unicode="è" d="M576 710q11 0 11 -8l-1 -2v-3l-4 -18q-1 -12 -14 -12h-375l-50 -286h331q14 0 11 -12l-4 -18q-3 -13 -15 -13h-331l-52 -295h389q13 0 10 -12l-3 -18q-3 -13 -15 -13h-422q-11 0 -11 7q0 1 0.5 3t0.5 3l121 684q1 13 14 13h409zM309 886q5 5 11 5q7 0 12 -4l153 -103 q4 -4 4 -6q0 -3 -5 -8l-7 -6q-4 -4 -8 -4q-3 0 -8 3l-163 98q-6 3 -6 5q0 3 6 9z"/>
<glyph glyph-name="eacute" horiz-adv-x="569" unicode="é" d="M576 710q11 0 11 -8l-1 -2v-3l-4 -18q-1 -12 -14 -12h-375l-50 -286h331q14 0 11 -12l-4 -18q-3 -13 -15 -13h-331l-52 -295h389q13 0 10 -12l-3 -18q-3 -13 -15 -13h-422q-11 0 -11 7q0 1 0.5 3t0.5 3l121 684q1 13 14 13h409zM474 895q6 3 13 3q6 0 10 -5l7 -11 q3 -4 3 -7q0 -5 -8 -8l-195 -102q-8 -2 -10 -2q-3 0 -6 3l-5 8q-3 4 -3 7q0 4 6 7z"/>
<glyph glyph-name="ecircumflex" horiz-adv-x="569" unicode="ê" d="M576 710q11 0 11 -8l-1 -2v-3l-4 -18q-1 -12 -14 -12h-375l-50 -286h331q14 0 11 -12l-4 -18q-3 -13 -15 -13h-331l-52 -295h389q13 0 10 -12l-3 -18q-3 -13 -15 -13h-422q-11 0 -11 7q0 1 0.5 3t0.5 3l121 684q1 13 14 13h409zM408 897q12 0 22 -11l113 -112q2 -4 2 -5 q0 -5 -10 -5h-16q-13 0 -19 7l-98 95l-133 -95q-8 -7 -20 -7h-21q-9 0 -9 4q0 3 5 6l153 112q13 11 25 11h6z"/>
<glyph glyph-name="edieresis" horiz-adv-x="569" unicode="ë" d="M576 710q11 0 11 -8l-1 -2v-3l-4 -18q-1 -12 -14 -12h-375l-50 -286h331q14 0 11 -12l-4 -18q-3 -13 -15 -13h-331l-52 -295h389q13 0 10 -12l-3 -18q-3 -13 -15 -13h-422q-11 0 -11 7q0 1 0.5 3t0.5 3l121 684q1 13 14 13h409zM495 853q20 0 20 -17v-6l-2 -7 q-4 -22 -27 -22h-6q-20 0 -20 13q0 6 1 9l1 7q2 13 8 18t20 5h5zM304 853q20 0 20 -14q0 -5 -1 -9l-1 -7q-2 -13 -7.5 -17.5t-19.5 -4.5h-6q-20 0 -20 14q0 5 1 8l2 7q3 23 26 23h6z"/>
<glyph glyph-name="igrave" horiz-adv-x="212" unicode="ì" d="M153 697q1 13 14 13h21q12 0 11 -13l-121 -684q-3 -13 -15 -13h-21q-11 0 -11 7q0 1 0.5 3t0.5 3zM114 886q5 5 11 5q7 0 12 -4l153 -103q4 -3 4 -5q0 -4 -5 -9l-6 -6q-4 -4 -8 -4q-3 0 -8 3l-164 98q-6 1 -6 5q0 2 7 9z"/>
<glyph glyph-name="iacute" horiz-adv-x="212" unicode="í" d="M153 697q1 13 14 13h21q12 0 11 -13l-121 -684q-3 -13 -15 -13h-21q-11 0 -11 7q0 1 0.5 3t0.5 3zM280 895q6 3 12 3t10 -5l7 -11q3 -4 3 -8t-7 -7l-196 -102q-8 -2 -9 -2q-4 0 -7 3l-5 8q-2 3 -2 7t6 7z"/>
<glyph glyph-name="icircumflex" horiz-adv-x="212" unicode="î" d="M153 697q1 13 14 13h21q12 0 11 -13l-121 -684q-3 -13 -15 -13h-21q-13 0 -10 13zM213 897q13 0 23 -11l112 -112q2 -4 2 -5q0 -5 -10 -5h-16q-13 0 -19 7l-98 95l-132 -95q-8 -7 -21 -7h-20q-9 0 -9 4q0 3 4 6l153 112q13 11 26 11h5z"/>
<glyph glyph-name="idieresis" horiz-adv-x="212" unicode="ï" d="M153 697q1 13 14 13h21q12 0 11 -13l-121 -684q-3 -13 -15 -13h-21q-11 0 -11 7q0 1 0.5 3t0.5 3zM301 853q20 0 20 -15q0 -5 -1 -8l-1 -7q-5 -22 -28 -22h-5q-21 0 -21 13q0 6 1 9l2 7q3 23 27 23h6zM110 853q20 0 20 -15q0 -1 -0.5 -3.5t-0.5 -4.5l-1 -7 q-3 -13 -8.5 -17.5t-18.5 -4.5h-7q-19 0 -19 13q0 5 1 9l1 7q4 23 27 23h6z"/>
<glyph glyph-name="eth" horiz-adv-x="655" unicode="ð" d="M578 446q5 30 5 51q0 82 -53 126t-156 44h-172l-51 -293h192q8 0 7 -10l-3 -13q-1 -10 -11 -10h-192l-52 -298h172q116 0 189.5 58t92.5 163zM380 710q120 0 184.5 -56t64.5 -154q0 -28 -6 -59l-32 -182q-22 -123 -109 -191t-227 -68h-204q-13 0 -10 13l57 328h-80 q-10 0 -9 10l3 13q2 10 12 10h81l57 323q1 13 14 13h204z"/>
<glyph glyph-name="ntilde" horiz-adv-x="689" unicode="ñ" d="M664 710q12 0 12 -8v-2q-1 -2 -1 -3l-121 -684q-3 -13 -15 -13h-20q-10 0 -13 8l-264 506q-12 24 -30.5 70t-26.5 60h-3q-3 -19 -10 -76t-12 -89l-83 -466q-3 -13 -15 -13h-20q-11 0 -11 7q0 1 0.5 3t0.5 3l121 684q1 13 14 13h17q9 0 14 -7l258 -493q16 -30 38 -80.5 t28 -62.5h3q3 16 10 78.5t14 101.5l80 451q3 12 15 12h20zM589 875q7 0 7 -5q0 -43 -28 -70t-63 -27q-24 0 -44 11.5t-32 24.5t-29.5 24.5t-37.5 11.5q-23 0 -39 -17.5t-21 -46.5q-1 -8 -9 -8h-14q-7 0 -7 4v1q1 2 1 3q16 94 91 94q30 0 54 -18t44.5 -36t44.5 -18 q49 0 59 64q3 8 10 8h13z"/>
<glyph glyph-name="ograve" horiz-adv-x="663" unicode="ò" d="M586 477q5 28 5 48q0 75 -49 115.5t-143 40.5q-109 0 -175.5 -53t-83.5 -151l-44 -244q-4 -21 -4 -46q0 -76 49.5 -117t143.5 -41q107 0 174 53.5t84 150.5zM94 481q20 116 100 179.5t211 63.5q112 0 172 -52t60 -144q0 -24 -5 -56l-43 -244q-20 -116 -100 -179t-209 -63 q-114 0 -174.5 52t-60.5 144q0 23 5 55zM343 896q5 5 12 5t12 -4l152 -103q5 -3 5 -6q0 -2 -6 -8l-6 -6q-4 -4 -8 -4q-3 0 -8 3l-163 98q-6 3 -6 5q0 3 6 9z"/>
<glyph glyph-name="oacute" horiz-adv-x="663" unicode="ó" d="M586 477q5 28 5 48q0 75 -49 115.5t-143 40.5q-109 0 -175.5 -53t-83.5 -151l-44 -244q-4 -21 -4 -46q0 -76 49.5 -117t143.5 -41q107 0 174 53.5t84 150.5zM94 481q20 116 100 179.5t211 63.5q112 0 172 -52t60 -144q0 -24 -5 -56l-43 -244q-20 -116 -100 -179t-209 -63 q-114 0 -174.5 52t-60.5 144q0 23 5 55zM509 905q6 3 13 3q6 0 9 -5l7 -11q4 -4 4 -8t-8 -7l-195 -102q-8 -2 -10 -2q-3 0 -6 3l-6 8q-2 3 -2 7t6 7z"/>
<glyph glyph-name="ocircumflex" horiz-adv-x="663" unicode="ô" d="M586 477q5 28 5 48q0 75 -49 115.5t-143 40.5q-109 0 -175.5 -53t-83.5 -151l-44 -244q-4 -21 -4 -46q0 -76 49.5 -117t143.5 -41q107 0 174 53.5t84 150.5zM94 481q20 116 100 179.5t211 63.5q112 0 172 -52t60 -144q0 -24 -5 -56l-43 -244q-20 -116 -100 -179t-209 -63 q-114 0 -174.5 52t-60.5 144q0 23 5 55zM443 907q12 0 22 -11l113 -112q1 -2 1 -4q0 -6 -10 -6h-15q-14 0 -19 7l-98 95l-133 -95q-8 -7 -20 -7h-21q-9 0 -9 4q0 3 4 6l154 112q12 11 25 11h6z"/>
<glyph glyph-name="otilde" horiz-adv-x="663" unicode="õ" d="M586 477q5 28 5 48q0 75 -49 115.5t-143 40.5q-109 0 -175.5 -53t-83.5 -151l-44 -244q-4 -21 -4 -46q0 -76 49.5 -117t143.5 -41q107 0 174 53.5t84 150.5zM94 481q20 116 100 179.5t211 63.5q112 0 172 -52t60 -144q0 -24 -5 -56l-43 -244q-20 -116 -100 -179t-209 -63 q-114 0 -174.5 52t-60.5 144q0 23 5 55zM580 885q7 0 7 -5q0 -43 -28 -70t-63 -27q-24 0 -44 11.5t-32 24.5t-29.5 24.5t-37.5 11.5q-23 0 -38.5 -17.5t-20.5 -46.5q-3 -8 -10 -8h-14q-7 0 -7 4l1 1v3q16 94 91 94q31 0 54.5 -18t44 -36t44.5 -18q49 0 59 64q3 8 10 8h13z "/>
<glyph glyph-name="odieresis" horiz-adv-x="663" unicode="ö" d="M586 477q5 28 5 48q0 75 -49 115.5t-143 40.5q-109 0 -175.5 -53t-83.5 -151l-44 -244q-4 -21 -4 -46q0 -76 49.5 -117t143.5 -41q107 0 174 53.5t84 150.5zM94 481q20 116 100 179.5t211 63.5q112 0 172 -52t60 -144q0 -24 -5 -56l-43 -244q-20 -116 -100 -179t-209 -63 q-114 0 -174.5 52t-60.5 144q0 23 5 55zM530 863q20 0 20 -15q0 -5 -1 -8l-1 -7q-4 -22 -27 -22h-6q-20 0 -20 13q0 5 1 9l1 7q4 23 27 23h6zM339 863q20 0 20 -14q0 -5 -1 -9l-1 -7q-3 -13 -8.5 -17.5t-18.5 -4.5h-6q-20 0 -20 14q0 5 1 8l1 7q4 23 27 23h6z"/>
<glyph glyph-name="divide" horiz-adv-x="593" unicode="÷" d="M272 155q24 0 24 -17q0 -6 -1 -10l-1 -6q-5 -27 -33 -27h-5q-23 0 -23 16q0 7 1 11l1 6q2 15 9.5 21t23.5 6h4zM526 345q11 0 11 -7l-1 -2v-3l-3 -17q-1 -12 -14 -12h-446q-11 0 -11 7v2q1 2 1 3l3 17q1 12 14 12h446zM342 556q24 0 24 -17q0 -6 -1 -10l-1 -6 q-2 -16 -9 -21.5t-23 -5.5h-5q-24 0 -24 17q0 6 1 10l1 6q5 27 32 27h5z"/>
<glyph glyph-name="oslash" horiz-adv-x="663" unicode="ø" d="M586 477q4 20 4 44q0 47 -21 80l-431 -528q50 -44 147 -44q107 0 174 53.5t84 150.5zM552 629q-47 52 -153 52q-109 0 -175.5 -53t-83.5 -151l-44 -244q-4 -30 -4 -42q0 -55 29 -92zM683 749q3 0 3 -2q0 -1 -2 -3l-81 -100q34 -46 34 -116q0 -23 -5 -56l-43 -244 q-20 -116 -100 -179t-209 -63q-113 0 -172 51l-61 -75q-4 -5 -13 -5h-23q-4 0 -4 2q0 1 2 3l77 95q-41 50 -41 124q0 24 5 56l44 244q20 116 100 179.5t211 63.5q119 0 178 -59l64 80q4 4 11 4h25z"/>
<glyph glyph-name="ugrave" horiz-adv-x="681" unicode="ù" d="M112 240q-5 -30 -5 -51q0 -76 46.5 -118.5t139.5 -42.5q107 0 171.5 56.5t82.5 155.5l81 457q1 13 14 13h21q12 0 12 -8l-1 -2v-3l-82 -462q-21 -119 -98.5 -184.5t-206.5 -65.5q-112 0 -169 53t-57 146q0 30 6 61l80 452q3 13 15 13h21q12 0 11 -13zM349 886q5 5 12 5 t12 -4l152 -103q5 -3 5 -6q0 -2 -6 -8l-6 -6q-4 -4 -8 -4q-3 0 -8 3l-163 98q-6 3 -6 5q0 3 6 9z"/>
<glyph glyph-name="uacute" horiz-adv-x="681" unicode="ú" d="M112 240q-5 -30 -5 -51q0 -76 46.5 -118.5t139.5 -42.5q107 0 171.5 56.5t82.5 155.5l81 457q1 13 14 13h21q12 0 12 -8l-1 -2v-3l-82 -462q-21 -119 -98.5 -184.5t-206.5 -65.5q-112 0 -169 53t-57 146q0 30 6 61l80 452q3 13 15 13h21q12 0 11 -13zM515 895q6 3 13 3 q6 0 9 -5l7 -11q4 -4 4 -8t-8 -7l-195 -102q-8 -2 -10 -2q-3 0 -6 3l-6 8q-2 3 -2 7t6 7z"/>
<glyph glyph-name="ucircumflex" horiz-adv-x="681" unicode="û" d="M112 240q-5 -30 -5 -51q0 -76 46.5 -118.5t139.5 -42.5q107 0 171.5 56.5t82.5 155.5l81 457q1 13 14 13h21q12 0 12 -8l-1 -2v-3l-82 -462q-21 -119 -98.5 -184.5t-206.5 -65.5q-112 0 -169 53t-57 146q0 30 6 61l80 452q3 13 15 13h21q12 0 11 -13zM449 897 q12 0 22 -11l113 -112q1 -2 1 -4q0 -6 -10 -6h-15q-14 0 -19 7l-98 95l-133 -95q-8 -7 -20 -7h-21q-9 0 -9 4q0 3 4 6l154 112q12 11 25 11h6z"/>
<glyph glyph-name="udieresis" horiz-adv-x="681" unicode="ü" d="M112 240q-5 -30 -5 -51q0 -76 46.5 -118.5t139.5 -42.5q107 0 171.5 56.5t82.5 155.5l81 457q1 13 14 13h21q12 0 12 -8l-1 -2v-3l-82 -462q-21 -119 -98.5 -184.5t-206.5 -65.5q-112 0 -169 53t-57 146q0 30 6 61l80 452q3 13 15 13h21q12 0 11 -13zM536 853 q20 0 20 -15q0 -5 -1 -8l-1 -7q-4 -22 -27 -22h-6q-20 0 -20 13q0 5 1 9l1 7q4 23 27 23h6zM345 853q20 0 20 -14q0 -5 -1 -9l-1 -7q-3 -13 -8.5 -17.5t-18.5 -4.5h-6q-20 0 -20 14q0 5 1 8l1 7q4 23 27 23h6z"/>
<glyph glyph-name="yacute" horiz-adv-x="616" unicode="ý" d="M666 710q8 0 8 -6q0 -1 -2 -7l-343 -405l-49 -279q-3 -13 -15 -13h-21q-13 0 -10 13l49 280l-198 404q-1 2 -1 5q0 8 10 8h24q18 0 23 -11l173 -359l301 359q8 11 25 11h26zM483 895q6 3 13 3q6 0 10 -5l7 -11q3 -4 3 -7q0 -5 -8 -8l-195 -102q-8 -2 -10 -2q-3 0 -6 3 l-5 8q-3 4 -3 7q0 4 6 7z"/>
<glyph glyph-name="thorn" horiz-adv-x="615" unicode="þ" d="M328 176q86 0 145.5 49t73.5 134q4 20 4 42q0 67 -41.5 105t-116.5 38h-222l-65 -368h222zM404 587q91 0 143 -48t52 -132q0 -21 -5 -53q-18 -104 -90.5 -162.5t-178.5 -58.5h-226l-21 -120q-3 -13 -15 -13h-21q-11 0 -11 7q0 1 0.5 3t0.5 3l121 684q1 13 14 13h21 q12 0 11 -13l-20 -110h225z"/>
<glyph glyph-name="OE" horiz-adv-x="837" unicode="Œ" d="M96 233q-4 -21 -4 -47q0 -76 49 -117t143 -41q57 0 99 14l111 626q-48 14 -95 14q-108 0 -175 -54t-84 -151zM741 43q13 0 10 -12l-3 -18q-3 -13 -15 -13h-343q-57 -15 -114 -15q-112 0 -171.5 51.5t-59.5 143.5q0 28 6 58l43 244q20 116 101 179.5t212 63.5 q56 0 108 -15h330q11 0 11 -8v-2q-1 -2 -1 -3l-3 -18q-3 -12 -15 -12h-297l-50 -286h253q7 0 9.5 -2.5t1.5 -10.5l-4 -18q-3 -12 -15 -12h-254l-51 -295h311z"/>
<glyph glyph-name="oe" horiz-adv-x="837" unicode="œ" d="M96 233q-4 -21 -4 -47q0 -76 49 -117t143 -41q57 0 99 14l111 626q-48 14 -95 14q-108 0 -175 -54t-84 -151zM741 43q13 0 10 -12l-3 -18q-3 -13 -15 -13h-343q-57 -15 -114 -15q-112 0 -171.5 51.5t-59.5 143.5q0 28 6 58l43 244q20 116 101 179.5t212 63.5 q56 0 108 -15h330q11 0 11 -8v-2q-1 -2 -1 -3l-3 -18q-3 -12 -15 -12h-297l-50 -286h253q7 0 9.5 -2.5t1.5 -10.5l-4 -18q-3 -12 -15 -12h-254l-51 -295h311z"/>
<glyph glyph-name="Scaron" horiz-adv-x="614" unicode="Š" d="M96 539q16 90 89 137.5t193 47.5q96 0 149 -39.5t77 -113.5q1 -2 1 -6q0 -7 -10 -10l-18 -9q-13 -4 -16 6q-21 63 -65 95.5t-125 32.5q-98 0 -157.5 -37.5t-71.5 -108.5q-3 -15 -3 -29q0 -34 16 -57.5t47 -37t61.5 -20t74.5 -11.5q37 -4 64.5 -10t58 -17.5t50 -28t32 -43 t12.5 -60.5q0 -21 -4 -41q-34 -193 -294 -193q-104 0 -163 43t-79 132q0 1 -0.5 3t-0.5 3q0 8 11 12l21 7q11 4 15 -8q19 -77 67.5 -112.5t132.5 -35.5q217 0 245 156q3 16 3 29q0 27 -11.5 47t-27 31.5t-43.5 20t-49.5 12.5t-57.5 8q-48 6 -83.5 15t-71 27t-54.5 49t-19 75 q0 11 4 39zM572 907q8 0 8 -4t-5 -7l-152 -111q-13 -11 -25 -11h-6q-13 0 -22 11l-113 111q-2 4 -2 5q0 6 10 6h18q11 0 18 -7l97 -95l133 95q8 7 22 7h19z"/>
<glyph glyph-name="scaron" horiz-adv-x="614" unicode="š" d="M96 539q16 90 89 137.5t193 47.5q96 0 149 -39.5t77 -113.5q1 -2 1 -6q0 -7 -10 -10l-18 -9q-13 -4 -16 6q-21 63 -65 95.5t-125 32.5q-98 0 -157.5 -37.5t-71.5 -108.5q-3 -15 -3 -29q0 -34 16 -57.5t47 -37t61.5 -20t74.5 -11.5q37 -4 64.5 -10t58 -17.5t50 -28t32 -43 t12.5 -60.5q0 -21 -4 -41q-34 -193 -294 -193q-104 0 -163 43t-79 132q0 1 -0.5 3t-0.5 3q0 8 11 12l21 7q11 4 15 -8q19 -77 67.5 -112.5t132.5 -35.5q217 0 245 156q3 16 3 29q0 27 -11.5 47t-27 31.5t-43.5 20t-49.5 12.5t-57.5 8q-48 6 -83.5 15t-71 27t-54.5 49t-19 75 q0 11 4 39zM572 907q8 0 8 -4t-5 -7l-152 -111q-13 -11 -25 -11h-6q-13 0 -22 11l-113 111q-2 4 -2 5q0 6 10 6h18q11 0 18 -7l97 -95l133 95q8 7 22 7h19z"/>
<glyph glyph-name="Ydieresis" horiz-adv-x="616" unicode="Ÿ" d="M666 710q8 0 8 -6q0 -1 -2 -7l-343 -405l-49 -279q-3 -13 -15 -13h-21q-13 0 -10 13l49 280l-198 404q-1 2 -1 5q0 8 10 8h24q18 0 23 -11l173 -359l301 359q8 11 25 11h26zM504 853q20 0 20 -17v-6l-2 -7q-4 -22 -27 -22h-6q-20 0 -20 13q0 6 1 9l1 7q2 13 8 18t20 5h5z M313 853q20 0 20 -14q0 -5 -1 -9l-1 -7q-2 -13 -7.5 -17.5t-19.5 -4.5h-6q-20 0 -20 14q0 5 1 8l2 7q3 23 26 23h6z"/>
<glyph glyph-name="circumflex" horiz-adv-x="370" unicode="ˆ" d="M269 720q11 0 21 -11l113 -113q2 -2 2 -5q0 -5 -9 -5h-16q-12 0 -19 7l-98 97l-133 -97q-8 -7 -20 -7h-21q-9 0 -9 4q0 2 4 6l153 113q15 11 26 11h6z"/>
<glyph glyph-name="tilde" horiz-adv-x="305" unicode="˜" d="M378 704q7 0 7 -4l-1 -2v-2q-16 -94 -89 -94q-24 0 -44.5 11t-32.5 25t-30 25t-38 11q-23 0 -39 -17t-21 -47q0 -8 -9 -8h-13q-8 0 -8 8q17 94 91 94q30 0 54 -18t45.5 -36t45.5 -18q47 0 59 64q1 8 9 8h14z"/>
<glyph glyph-name="pi" horiz-adv-x="600" unicode="π" d="M608 512q11 0 11 -7l-1 -1v-3l-3 -16q-1 -12 -13 -12h-70l-58 -329q-6 -33 -6 -55q0 -30 14 -64q3 -13 -9 -18l-18 -8q-6 -2 -7 -2q-5 0 -8 8q-16 38 -16 76q0 21 7 65l58 327h-274l-82 -461q-3 -12 -14 -12h-19q-12 0 -9 12l81 461q-59 -1 -118 -32q-13 -6 -16 3l-4 16 v3l-1 2q0 7 9 11q69 36 156 36h410z"/>
<glyph glyph-name="uni0401" horiz-adv-x="569" unicode="Ё" d="M576 710q11 0 11 -8l-1 -2v-3l-4 -18q-1 -12 -14 -12h-375l-50 -286h331q14 0 11 -12l-4 -18q-3 -13 -15 -13h-331l-52 -295h389q13 0 10 -12l-3 -18q-3 -13 -15 -13h-422q-11 0 -11 7q0 1 0.5 3t0.5 3l121 684q1 13 14 13h409zM504 843q20 0 20 -15q0 -5 -1 -8l-1 -7 q-5 -22 -28 -22h-5q-21 0 -21 13q0 6 1 9l1 7q4 23 28 23h6zM313 843q20 0 20 -15q0 -1 -0.5 -3.5t-0.5 -4.5l-2 -7q-2 -13 -7.5 -17.5t-18.5 -4.5h-7q-19 0 -19 13q0 5 1 9l1 7q4 23 27 23h6z"/>
<glyph glyph-name="uni0410" d="M384 626q-2 12 -2 31v12h-2q0 -1 -2.5 -8t-6 -16.5t-7.5 -18.5l-205 -355h305zM568 12q2 -12 -11 -12h-17q-19 0 -20 11l-50 221h-332l-127 -221q-6 -11 -25 -11h-18q-10 0 -10 5q0 3 3 7l398 691q7 12 19 12h20q12 0 15 -12z" unicode="А"/>
<glyph glyph-name="uni0411" horiz-adv-x="626" unicode="Б" d="M524 199q3 19 3 37q0 57 -34.5 88t-100.5 31h-254l-55 -312h255q75 0 124 41t62 115zM598 710q12 0 11 -13l-4 -18q-1 -12 -14 -12h-398l-47 -269h255q82 0 128 -41t46 -115q0 -24 -4 -47q-16 -94 -78 -144.5t-157 -50.5h-294q-11 0 -11 7l1 2v3l121 685q1 13 14 13h431z "/>
<glyph glyph-name="uni0412" horiz-adv-x="640" unicode="В" d="M524 193q3 19 3 36q0 54 -33 83t-96 29h-262l-53 -298h263q73 0 119 38.5t59 111.5zM559 526q4 26 4 37q0 104 -124 104h-246l-50 -284h246q70 0 114 36t56 107zM450 710q77 0 119 -36t42 -103q0 -22 -4 -42q-22 -126 -132 -162v-2q48 -12 74.5 -48t26.5 -89 q0 -23 -4 -43q-17 -90 -78 -137.5t-155 -47.5h-297q-11 0 -11 7q0 1 0.5 3t0.5 3l121 684q1 13 14 13h283z"/>
<glyph glyph-name="uni0413" horiz-adv-x="514" unicode="Г" d="M551 710q7 0 9.5 -2.5t1.5 -10.5l-4 -18q-1 -12 -14 -12h-351l-115 -654q-3 -13 -15 -13h-21q-11 0 -11 7q0 1 0.5 3t0.5 3l121 684q1 13 14 13h384z"/>
<glyph glyph-name="uni0414" horiz-adv-x="702" unicode="Д" d="M257 496q-38 -219 -81.5 -315.5t-93.5 -137.5h424l110 624h-328zM657 710q7 0 9.5 -2.5t1.5 -10.5l-115 -654h68q13 0 10 -12l-30 -171q-3 -13 -15 -13h-20q-13 0 -10 13l24 140h-573l-24 -140q-3 -13 -15 -13h-21q-11 0 -11 8v2q1 2 1 3l30 171q3 12 15 12h42 q26 16 44.5 36t45 66t52 134.5t47.5 216.5l36 201q3 13 14 13h394z"/>
<glyph glyph-name="uni0415" horiz-adv-x="569" unicode="Е" d="M576 710q11 0 11 -8l-1 -2v-3l-4 -18q-1 -12 -14 -12h-375l-50 -286h331q14 0 11 -12l-4 -18q-3 -13 -15 -13h-331l-52 -295h389q13 0 10 -12l-3 -18q-3 -13 -15 -13h-422q-11 0 -11 7q0 1 0.5 3t0.5 3l121 684q1 13 14 13h409z"/>
<glyph glyph-name="uni0416" horiz-adv-x="905" unicode="Ж" d="M937 710q9 0 9 -5q0 -4 -4 -8l-282 -332q62 -21 90 -103l82 -249q6 -13 -9 -13h-20q-18 0 -22 11l-75 233q-17 52 -46.5 73.5t-93.5 21.5h-84l-58 -326q-3 -13 -15 -13h-21q-13 0 -10 13l57 326h-84q-61 0 -98.5 -22t-72.5 -73l-158 -233q-9 -11 -27 -11h-20q-9 0 -9 5 q0 2 4 8l170 249q29 42 58.5 67t68.5 36l-166 332q-6 13 9 13h19q19 0 24 -11l158 -320q28 2 48 2h84l56 316q1 13 14 13h21q14 0 11 -13l-56 -316h84q18 0 44 -2l271 320q8 11 27 11h22z"/>
<glyph glyph-name="uni0417" horiz-adv-x="611" unicode="З" d="M580 522q-23 -120 -125 -156q92 -37 92 -134q0 -23 -4 -43q-37 -203 -284 -203q-120 0 -177 44.5t-67 133.5q0 1 -1 2v2q0 9 12 12l19 6q13 4 16 -8q9 -77 55 -113t148 -36t160 43t71 121q3 20 3 37q0 53 -31.5 83t-91.5 30h-188q-13 0 -10 12l3 17q1 13 15 13h184 q66 0 105 39.5t50 99.5q4 26 4 37q0 58 -41 89t-119 31q-98 0 -154.5 -34.5t-93.5 -111.5q-6 -11 -18 -7l-17 6q-12 4 -6 17q42 88 111 130.5t185 42.5q97 0 148 -41.5t51 -116.5q0 -24 -4 -44z"/>
<glyph glyph-name="uni0418" horiz-adv-x="693" unicode="И" d="M668 710q12 0 12 -8v-2q-1 -2 -1 -3l-121 -684q-3 -13 -15 -13h-21q-13 0 -10 13l79 442q18 102 41 192h-2q-44 -57 -141 -169l-410 -470q-7 -8 -16 -8h-21q-11 0 -11 7q0 1 0.5 3t0.5 3l121 684q1 13 14 13h21q14 0 11 -13l-77 -429q-18 -104 -43 -205h2q37 48 151 183 l401 457q5 7 14 7h21z"/>
<glyph glyph-name="uni0419" horiz-adv-x="693" unicode="Й" d="M668 710q12 0 12 -8v-2q-1 -2 -1 -3l-121 -684q-3 -13 -15 -13h-21q-13 0 -10 13l79 442q18 102 41 192h-2q-44 -57 -141 -169l-410 -470q-7 -8 -16 -8h-21q-11 0 -11 7q0 1 0.5 3t0.5 3l121 684q1 13 14 13h21q14 0 11 -13l-77 -429q-18 -104 -43 -205h2q37 48 151 183 l401 457q5 7 14 7h21zM427 764q-60 0 -96 29.5t-36 85.5q0 7 7 8l18 5q10 3 10 -5q4 -46 29 -67.5t73 -21.5q90 0 131 90q5 6 8 6q2 0 4 -1l17 -6q5 -2 5 -6q0 -1 -2 -5q-52 -112 -168 -112z"/>
<glyph glyph-name="uni041A" horiz-adv-x="599" unicode="К" d="M528 13q4 -13 -10 -13h-19q-18 0 -22 11l-76 233q-17 52 -45.5 73.5t-89.5 21.5h-131l-57 -326q-3 -13 -15 -13h-21q-11 0 -11 7q0 1 0.5 3t0.5 3l121 684q1 13 14 13h21q12 0 11 -13l-56 -316h124q17 0 25 -1l292 319q9 11 27 11h23q9 0 9 -5q0 -3 -5 -8l-301 -327 q44 -10 68.5 -36t39.5 -72z"/>
<glyph glyph-name="uni041B" horiz-adv-x="647" unicode="Л" d="M623 710q12 0 11 -13l-121 -684q-3 -13 -15 -13h-21q-13 0 -10 13l115 654h-325l-36 -202q-11 -65 -23.5 -120t-24 -96t-26 -75t-25 -57t-27.5 -43t-27 -31t-30 -23t-30 -17t-32 -15q-6 -2 -8 -2q-7 0 -8 7l-7 19q0 1 -0.5 2.5t-0.5 2.5q0 8 11 12q28 13 42 21t36.5 27.5 t36.5 47.5t32.5 72.5t34 111t31.5 156.5l41 232q1 13 14 13h392z"/>
<glyph glyph-name="uni041C" horiz-adv-x="797" unicode="М" d="M773 710q12 0 11 -13l-121 -684q-3 -13 -15 -13h-20q-13 0 -10 13l82 459q14 80 36 167h-2q-47 -71 -100 -143l-234 -316q-7 -10 -18 -10h-11q-12 0 -15 10l-125 320q-23 58 -47 139h-2q-6 -59 -24 -167l-81 -459q-3 -13 -15 -13h-20q-11 0 -11 7q0 1 0.5 3t0.5 3 l121 684q1 13 14 13h15q13 0 17 -11l185 -473l349 472q8 12 20 12h20z"/>
<glyph glyph-name="uni041D" horiz-adv-x="681" unicode="Н" d="M657 710q11 0 11 -8v-2q-1 -2 -1 -3l-121 -684q-1 -13 -14 -13h-22q-13 0 -10 13l57 325h-422l-57 -325q-3 -13 -15 -13h-21q-11 0 -11 7q0 1 0.5 3t0.5 3l121 684q1 13 14 13h21q12 0 11 -13l-56 -316h422l56 316q3 13 14 13h22z"/>
<glyph glyph-name="uni041E" horiz-adv-x="663" unicode="О" d="M586 477q5 28 5 48q0 75 -49 115.5t-143 40.5q-109 0 -175.5 -53t-83.5 -151l-44 -244q-4 -21 -4 -46q0 -76 49.5 -117t143.5 -41q107 0 174 53.5t84 150.5zM94 481q20 116 100 179.5t211 63.5q112 0 172 -52t60 -144q0 -24 -5 -56l-43 -244q-20 -116 -100 -179t-209 -63 q-114 0 -174.5 52t-60.5 144q0 23 5 55z"/>
<glyph glyph-name="uni041F" horiz-adv-x="674" unicode="П" d="M650 710q12 0 11 -13l-121 -684q-3 -13 -15 -13h-21q-13 0 -10 13l115 654h-416l-115 -654q-3 -13 -15 -13h-21q-11 0 -11 7q0 1 0.5 3t0.5 3l121 684q1 13 14 13h483z"/>
<glyph glyph-name="uni0420" horiz-adv-x="618" unicode="Р" d="M363 319q83 0 138.5 46t69.5 127q4 20 4 41q0 64 -39.5 99t-110.5 35h-232l-61 -348h231zM436 710q88 0 137.5 -46t49.5 -126q0 -22 -5 -52q-19 -101 -87 -155.5t-171 -54.5h-236l-46 -263q-3 -13 -15 -13h-21q-11 0 -11 7q0 1 0.5 3t0.5 3l121 684q1 13 14 13h269z"/>
<glyph glyph-name="uni0421" horiz-adv-x="632" unicode="С" d="M92 480q21 116 100.5 180t209.5 64q113 0 167 -43.5t64 -131.5q0 -1 0.5 -2.5t0.5 -2.5q0 -8 -11 -11l-17 -6q-14 -4 -15 8q-10 76 -54.5 111t-139.5 35q-109 0 -175.5 -53t-83.5 -149l-42 -245q-5 -28 -5 -48q0 -75 48.5 -115.5t142.5 -40.5q97 0 154 36.5t94 113.5 q7 12 18 8l19 -7q11 -4 5 -17q-43 -90 -110.5 -134t-183.5 -44q-113 0 -173.5 51t-60.5 143q0 23 5 55z"/>
<glyph glyph-name="uni0422" horiz-adv-x="529" unicode="Т" d="M576 710q12 0 11 -13l-4 -18q-1 -12 -14 -12h-218l-115 -654q-3 -13 -15 -13h-21q-13 0 -10 13l115 654h-217q-12 0 -11 12l4 18q1 13 14 13h481z"/>
<glyph glyph-name="uni0423" horiz-adv-x="581" unicode="У" d="M630 710q8 0 8 -5q0 -3 -3 -8l-467 -686q-7 -11 -24 -11h-24q-14 0 -4 13l130 189l-176 495v3l-1 2q0 8 10 8h21q11 0 14.5 -2t7.5 -9l156 -449l307 449q5 7 8 9t14 2h23z"/>
<glyph glyph-name="uni0424" horiz-adv-x="824" unicode="Ф" d="M745 397q5 30 5 52q0 76 -48 117.5t-143 41.5h-69l-88 -501h68q110 0 177 55.5t84 155.5zM375 608q-109 0 -176 -55.5t-84 -155.5l-15 -79q-5 -30 -5 -50q0 -77 49 -119t143 -42h69l88 501h-69zM500 735q13 0 10 -13l-12 -72h68q112 0 171 -51.5t59 -144.5q0 -29 -6 -62 l-14 -77q-20 -119 -101 -184.5t-212 -65.5h-69l-12 -72q-3 -13 -15 -13h-21q-12 0 -11 13l13 72h-69q-112 0 -171 51.5t-59 144.5q0 29 6 62l14 77q21 119 102 184.5t212 65.5h69l12 72q1 13 15 13h21z"/>
<glyph glyph-name="uni0425" horiz-adv-x="606" unicode="Х" d="M648 710q8 0 8 -5q0 -4 -3 -7l-310 -338l196 -345q5 -6 2.5 -10.5t-10.5 -4.5h-24q-18 0 -22 11l-177 313l-284 -313q-10 -11 -26 -11h-28q-8 0 -8 5q0 3 5 10l318 346l-190 337q-2 4 0 8t8 4h25q16 0 22 -11l170 -301l276 301q10 11 24 11h28z"/>
<glyph glyph-name="uni0426" horiz-adv-x="692" unicode="Ц" d="M610 43q11 0 10 -12l-30 -171q-3 -13 -15 -13h-20q-13 0 -10 13l25 140h-528q-11 0 -11 7q0 1 0.5 3t0.5 3l121 684q1 13 14 13h21q12 0 11 -13l-116 -654h413l115 654q3 13 14 13h22q11 0 11 -8v-2q-1 -2 -1 -3l-115 -654h68z"/>
<glyph glyph-name="uni0427" horiz-adv-x="622" unicode="Ч" d="M598 710q11 0 11 -8l-1 -2v-3l-121 -684q-1 -13 -14 -13h-22q-13 0 -10 13l49 281q-92 -23 -206 -23q-213 0 -213 176q0 38 7 74l32 176q3 13 14 13h21q12 0 11 -13l-32 -180q-7 -42 -7 -65q0 -70 41.5 -103.5t134.5 -33.5q108 0 206 23l63 359q3 13 14 13h22z"/>
<glyph glyph-name="uni0428" horiz-adv-x="906" unicode="Ш" d="M882 710q12 0 11 -13l-121 -684q-3 -13 -15 -13h-715q-11 0 -11 7q0 1 0.5 3t0.5 3l121 684q1 13 14 13h21q12 0 11 -13l-116 -654h301l115 654q3 13 15 13h21q12 0 11 -13l-116 -654h301l115 654q3 13 14 13h22z"/>
<glyph glyph-name="uni0429" horiz-adv-x="927" unicode="Щ" d="M847 43q11 0 10 -12l-30 -171q-3 -13 -15 -13h-20q-13 0 -10 13l24 140h-764q-11 0 -11 7q0 1 0.5 3t0.5 3l121 684q1 13 14 13h21q12 0 11 -13l-116 -654h301l115 654q3 13 15 13h21q12 0 11 -13l-116 -654h301l115 654q3 13 14 13h22q12 0 11 -13l-116 -654h70z"/>
<glyph glyph-name="uni042A" horiz-adv-x="711" unicode="Ъ" d="M410 43q82 0 137.5 46.5t69.5 128.5q4 28 4 40q0 64 -39.5 98.5t-110.5 34.5h-232l-61 -348h232zM479 434q89 0 139.5 -46t50.5 -126q0 -22 -5 -50q-17 -101 -85 -156.5t-171 -55.5h-271q-14 0 -11 13l116 654h-161q-12 0 -11 12l4 18q1 13 14 13h195q12 0 11 -13 l-48 -263h233z"/>
<glyph glyph-name="uni042B" horiz-adv-x="843" unicode="Ы" d="M522 218q4 20 4 41q0 63 -39.5 97.5t-110.5 34.5h-232l-61 -348h231q83 0 138.5 46.5t69.5 128.5zM784 697q1 13 14 13h21q12 0 11 -13l-121 -684q-3 -13 -15 -13h-21q-13 0 -10 13zM570 214q-18 -101 -87 -157.5t-171 -56.5h-270q-11 0 -11 7q0 1 0.5 3t0.5 3l121 684 q1 13 14 13h21q12 0 11 -13l-47 -263h233q89 0 139.5 -45.5t50.5 -125.5q0 -21 -5 -49z"/>
<glyph glyph-name="uni042C" horiz-adv-x="616" unicode="Ь" d="M522 218q4 20 4 41q0 63 -39.5 97.5t-110.5 34.5h-232l-61 -348h231q83 0 138.5 46.5t69.5 128.5zM570 214q-18 -101 -87 -157.5t-171 -56.5h-270q-11 0 -11 7q0 1 0.5 3t0.5 3l121 684q1 13 14 13h21q12 0 11 -13l-47 -263h233q89 0 139.5 -45.5t50.5 -125.5 q0 -21 -5 -49z"/>
<glyph glyph-name="uni042D" horiz-adv-x="635" unicode="Э" d="M87 551q42 88 110.5 130.5t181.5 42.5t172 -51t59 -143q0 -23 -5 -56l-43 -246q-20 -116 -100 -179t-209 -63q-115 0 -170.5 44.5t-65.5 133.5q0 1 -1 3v2q0 8 12 11l19 7q12 4 15 -8q9 -77 54 -113.5t142 -36.5q107 0 174 53.5t84 148.5l18 107h-327q-13 0 -10 12l3 18 q1 13 15 13h327l18 99q4 21 4 46q0 74 -48.5 114.5t-142.5 40.5q-96 0 -152.5 -34.5t-92.5 -111.5q-6 -11 -18 -7l-18 6q-11 4 -5 17z"/>
<glyph glyph-name="uni042E" horiz-adv-x="915" unicode="Ю" d="M837 478q5 28 5 48q0 74 -48 114.5t-140 40.5q-107 0 -173 -53.5t-83 -149.5l-44 -246q-4 -21 -4 -47q0 -75 48 -115.5t141 -40.5q107 0 172 52t83 151zM351 480q20 116 100 180t209 64q112 0 170 -51.5t58 -143.5q0 -23 -5 -56l-43 -247q-20 -115 -99 -177.5t-208 -62.5 q-112 0 -171 50.5t-59 141.5q0 23 5 55l19 105h-192l-57 -325q-3 -13 -15 -13h-21q-11 0 -11 7q0 1 0.5 3t0.5 3l121 684q1 13 14 13h21q12 0 11 -13l-56 -316h192z"/>
<glyph glyph-name="uni042F" horiz-adv-x="642" unicode="Я" d="M327 667q-76 0 -125.5 -40.5t-62.5 -115.5q-3 -19 -3 -36q0 -58 35.5 -89t100.5 -31h249l55 312h-249zM92 516q17 94 79.5 144t158.5 50h287q12 0 12 -8l-1 -2v-3l-121 -684q-3 -13 -15 -13h-21q-13 0 -10 13l53 299h-169q-62 0 -99.5 -21.5t-71.5 -73.5l-132 -206 q-9 -11 -28 -11h-19q-9 0 -9 5q0 2 4 8l146 222q39 63 92 84q-67 7 -103.5 47t-36.5 106q0 23 4 44z"/>
<glyph glyph-name="uni0430" d="M384 626q-2 12 -2 31v12h-2q0 -1 -2.5 -8t-6 -16.5t-7.5 -18.5l-205 -355h305zM568 12q2 -12 -11 -12h-17q-19 0 -20 11l-50 221h-332l-127 -221q-6 -11 -25 -11h-18q-10 0 -10 5q0 3 3 7l398 691q7 12 19 12h20q12 0 15 -12z" unicode="а"/>
<glyph glyph-name="uni0431" horiz-adv-x="626" unicode="б" d="M524 199q3 19 3 37q0 57 -34.5 88t-100.5 31h-254l-55 -312h255q75 0 124 41t62 115zM598 710q12 0 11 -13l-4 -18q-1 -12 -14 -12h-398l-47 -269h255q82 0 128 -41t46 -115q0 -24 -4 -47q-16 -94 -78 -144.5t-157 -50.5h-294q-11 0 -11 7l1 2v3l121 685q1 13 14 13h431z "/>
<glyph glyph-name="uni0432" horiz-adv-x="640" unicode="в" d="M524 193q3 19 3 36q0 54 -33 83t-96 29h-262l-53 -298h263q73 0 119 38.5t59 111.5zM559 526q4 26 4 37q0 104 -124 104h-246l-50 -284h246q70 0 114 36t56 107zM450 710q77 0 119 -36t42 -103q0 -22 -4 -42q-22 -126 -132 -162v-2q48 -12 74.5 -48t26.5 -89 q0 -23 -4 -43q-17 -90 -78 -137.5t-155 -47.5h-297q-11 0 -11 7q0 1 0.5 3t0.5 3l121 684q1 13 14 13h283z"/>
<glyph glyph-name="uni0433" horiz-adv-x="514" unicode="г" d="M551 710q7 0 9.5 -2.5t1.5 -10.5l-4 -18q-1 -12 -14 -12h-351l-115 -654q-3 -13 -15 -13h-21q-11 0 -11 7q0 1 0.5 3t0.5 3l121 684q1 13 14 13h384z"/>
<glyph glyph-name="uni0434" horiz-adv-x="702" unicode="д" d="M257 496q-38 -219 -81.5 -315.5t-93.5 -137.5h424l110 624h-328zM657 710q7 0 9.5 -2.5t1.5 -10.5l-115 -654h68q13 0 10 -12l-30 -171q-3 -13 -15 -13h-20q-13 0 -10 13l24 140h-573l-24 -140q-3 -13 -15 -13h-21q-11 0 -11 8v2q1 2 1 3l30 171q3 12 15 12h42 q26 16 44.5 36t45 66t52 134.5t47.5 216.5l36 201q3 13 14 13h394z"/>
<glyph glyph-name="uni0435" horiz-adv-x="569" unicode="е" d="M576 710q11 0 11 -8l-1 -2v-3l-4 -18q-1 -12 -14 -12h-375l-50 -286h331q14 0 11 -12l-4 -18q-3 -13 -15 -13h-331l-52 -295h389q13 0 10 -12l-3 -18q-3 -13 -15 -13h-422q-11 0 -11 7q0 1 0.5 3t0.5 3l121 684q1 13 14 13h409z"/>
<glyph glyph-name="uni0436" horiz-adv-x="905" unicode="ж" d="M937 710q9 0 9 -5q0 -4 -4 -8l-282 -332q62 -21 90 -103l82 -249q6 -13 -9 -13h-20q-18 0 -22 11l-75 233q-17 52 -46.5 73.5t-93.5 21.5h-84l-58 -326q-3 -13 -15 -13h-21q-13 0 -10 13l57 326h-84q-61 0 -98.5 -22t-72.5 -73l-158 -233q-9 -11 -27 -11h-20q-9 0 -9 5 q0 2 4 8l170 249q29 42 58.5 67t68.5 36l-166 332q-6 13 9 13h19q19 0 24 -11l158 -320q28 2 48 2h84l56 316q1 13 14 13h21q14 0 11 -13l-56 -316h84q18 0 44 -2l271 320q8 11 27 11h22z"/>
<glyph glyph-name="uni0437" horiz-adv-x="611" unicode="з" d="M580 522q-23 -120 -125 -156q92 -37 92 -134q0 -23 -4 -43q-37 -203 -284 -203q-120 0 -177 44.5t-67 133.5q0 1 -1 2v2q0 9 12 12l19 6q13 4 16 -8q9 -77 55 -113t148 -36t160 43t71 121q3 20 3 37q0 53 -31.5 83t-91.5 30h-188q-13 0 -10 12l3 17q1 13 15 13h184 q66 0 105 39.5t50 99.5q4 26 4 37q0 58 -41 89t-119 31q-98 0 -154.5 -34.5t-93.5 -111.5q-6 -11 -18 -7l-17 6q-12 4 -6 17q42 88 111 130.5t185 42.5q97 0 148 -41.5t51 -116.5q0 -24 -4 -44z"/>
<glyph glyph-name="uni0438" horiz-adv-x="693" unicode="и" d="M668 710q12 0 12 -8v-2q-1 -2 -1 -3l-121 -684q-3 -13 -15 -13h-21q-13 0 -10 13l79 442q18 102 41 192h-2q-44 -57 -141 -169l-410 -470q-7 -8 -16 -8h-21q-11 0 -11 7q0 1 0.5 3t0.5 3l121 684q1 13 14 13h21q14 0 11 -13l-77 -429q-18 -104 -43 -205h2q37 48 151 183 l401 457q5 7 14 7h21z"/>
<glyph glyph-name="uni0439" horiz-adv-x="693" unicode="й" d="M668 710q12 0 12 -8v-2q-1 -2 -1 -3l-121 -684q-3 -13 -15 -13h-21q-13 0 -10 13l79 442q18 102 41 192h-2q-44 -57 -141 -169l-410 -470q-7 -8 -16 -8h-21q-11 0 -11 7q0 1 0.5 3t0.5 3l121 684q1 13 14 13h21q14 0 11 -13l-77 -429q-18 -104 -43 -205h2q37 48 151 183 l401 457q5 7 14 7h21zM427 764q-60 0 -96 29.5t-36 85.5q0 7 7 8l18 5q10 3 10 -5q4 -46 29 -67.5t73 -21.5q90 0 131 90q5 6 8 6q2 0 4 -1l17 -6q5 -2 5 -6q0 -1 -2 -5q-52 -112 -168 -112z"/>
<glyph glyph-name="uni043A" horiz-adv-x="599" unicode="к" d="M528 13q4 -13 -10 -13h-19q-18 0 -22 11l-76 233q-17 52 -45.5 73.5t-89.5 21.5h-131l-57 -326q-3 -13 -15 -13h-21q-11 0 -11 7q0 1 0.5 3t0.5 3l121 684q1 13 14 13h21q12 0 11 -13l-56 -316h124q17 0 25 -1l292 319q9 11 27 11h23q9 0 9 -5q0 -3 -5 -8l-301 -327 q44 -10 68.5 -36t39.5 -72z"/>
<glyph glyph-name="uni043B" horiz-adv-x="647" unicode="л" d="M623 710q12 0 11 -13l-121 -684q-3 -13 -15 -13h-21q-13 0 -10 13l115 654h-325l-36 -202q-11 -65 -23.5 -120t-24 -96t-26 -75t-25 -57t-27.5 -43t-27 -31t-30 -23t-30 -17t-32 -15q-6 -2 -8 -2q-7 0 -8 7l-7 19q0 1 -0.5 2.5t-0.5 2.5q0 8 11 12q28 13 42 21t36.5 27.5 t36.5 47.5t32.5 72.5t34 111t31.5 156.5l41 232q1 13 14 13h392z"/>
<glyph glyph-name="uni043C" horiz-adv-x="797" unicode="м" d="M773 710q12 0 11 -13l-121 -684q-3 -13 -15 -13h-20q-13 0 -10 13l82 459q14 80 36 167h-2q-47 -71 -100 -143l-234 -316q-7 -10 -18 -10h-11q-12 0 -15 10l-125 320q-23 58 -47 139h-2q-6 -59 -24 -167l-81 -459q-3 -13 -15 -13h-20q-11 0 -11 7q0 1 0.5 3t0.5 3 l121 684q1 13 14 13h15q13 0 17 -11l185 -473l349 472q8 12 20 12h20z"/>
<glyph glyph-name="uni043D" horiz-adv-x="681" unicode="н" d="M657 710q11 0 11 -8v-2q-1 -2 -1 -3l-121 -684q-1 -13 -14 -13h-22q-13 0 -10 13l57 325h-422l-57 -325q-3 -13 -15 -13h-21q-11 0 -11 7q0 1 0.5 3t0.5 3l121 684q1 13 14 13h21q12 0 11 -13l-56 -316h422l56 316q3 13 14 13h22z"/>
<glyph glyph-name="uni043E" horiz-adv-x="663" unicode="о" d="M586 477q5 28 5 48q0 75 -49 115.5t-143 40.5q-109 0 -175.5 -53t-83.5 -151l-44 -244q-4 -21 -4 -46q0 -76 49.5 -117t143.5 -41q107 0 174 53.5t84 150.5zM94 481q20 116 100 179.5t211 63.5q112 0 172 -52t60 -144q0 -24 -5 -56l-43 -244q-20 -116 -100 -179t-209 -63 q-114 0 -174.5 52t-60.5 144q0 23 5 55z"/>
<glyph glyph-name="uni043F" horiz-adv-x="674" unicode="п" d="M650 710q12 0 11 -13l-121 -684q-3 -13 -15 -13h-21q-13 0 -10 13l115 654h-416l-115 -654q-3 -13 -15 -13h-21q-11 0 -11 7q0 1 0.5 3t0.5 3l121 684q1 13 14 13h483z"/>
<glyph glyph-name="uni0440" horiz-adv-x="618" unicode="р" d="M363 319q83 0 138.5 46t69.5 127q4 20 4 41q0 64 -39.5 99t-110.5 35h-232l-61 -348h231zM436 710q88 0 137.5 -46t49.5 -126q0 -22 -5 -52q-19 -101 -87 -155.5t-171 -54.5h-236l-46 -263q-3 -13 -15 -13h-21q-11 0 -11 7q0 1 0.5 3t0.5 3l121 684q1 13 14 13h269z"/>
<glyph glyph-name="uni0441" horiz-adv-x="632" unicode="с" d="M92 480q21 116 100.5 180t209.5 64q113 0 167 -43.5t64 -131.5q0 -1 0.5 -2.5t0.5 -2.5q0 -8 -11 -11l-17 -6q-14 -4 -15 8q-10 76 -54.5 111t-139.5 35q-109 0 -175.5 -53t-83.5 -149l-42 -245q-5 -28 -5 -48q0 -75 48.5 -115.5t142.5 -40.5q97 0 154 36.5t94 113.5 q7 12 18 8l19 -7q11 -4 5 -17q-43 -90 -110.5 -134t-183.5 -44q-113 0 -173.5 51t-60.5 143q0 23 5 55z"/>
<glyph glyph-name="uni0442" horiz-adv-x="529" unicode="т" d="M576 710q12 0 11 -13l-4 -18q-1 -12 -14 -12h-218l-115 -654q-3 -13 -15 -13h-21q-13 0 -10 13l115 654h-217q-12 0 -11 12l4 18q1 13 14 13h481z"/>
<glyph glyph-name="uni0443" horiz-adv-x="581" unicode="у" d="M630 710q8 0 8 -5q0 -3 -3 -8l-467 -686q-7 -11 -24 -11h-24q-14 0 -4 13l130 189l-176 495v3l-1 2q0 8 10 8h21q11 0 14.5 -2t7.5 -9l156 -449l307 449q5 7 8 9t14 2h23z"/>
<glyph glyph-name="uni0444" horiz-adv-x="824" unicode="ф" d="M745 397q5 30 5 52q0 76 -48 117.5t-143 41.5h-69l-88 -501h68q110 0 177 55.5t84 155.5zM375 608q-109 0 -176 -55.5t-84 -155.5l-15 -79q-5 -30 -5 -50q0 -77 49 -119t143 -42h69l88 501h-69zM500 735q13 0 10 -13l-12 -72h68q112 0 171 -51.5t59 -144.5q0 -29 -6 -62 l-14 -77q-20 -119 -101 -184.5t-212 -65.5h-69l-12 -72q-3 -13 -15 -13h-21q-12 0 -11 13l13 72h-69q-112 0 -171 51.5t-59 144.5q0 29 6 62l14 77q21 119 102 184.5t212 65.5h69l12 72q1 13 15 13h21z"/>
<glyph glyph-name="uni0445" horiz-adv-x="606" unicode="х" d="M648 710q8 0 8 -5q0 -4 -3 -7l-310 -338l196 -345q5 -6 2.5 -10.5t-10.5 -4.5h-24q-18 0 -22 11l-177 313l-284 -313q-10 -11 -26 -11h-28q-8 0 -8 5q0 3 5 10l318 346l-190 337q-2 4 0 8t8 4h25q16 0 22 -11l170 -301l276 301q10 11 24 11h28z"/>
<glyph glyph-name="uni0446" horiz-adv-x="692" unicode="ц" d="M610 43q11 0 10 -12l-30 -171q-3 -13 -15 -13h-20q-13 0 -10 13l25 140h-528q-11 0 -11 7q0 1 0.5 3t0.5 3l121 684q1 13 14 13h21q12 0 11 -13l-116 -654h413l115 654q3 13 14 13h22q11 0 11 -8v-2q-1 -2 -1 -3l-115 -654h68z"/>
<glyph glyph-name="uni0447" horiz-adv-x="622" unicode="ч" d="M598 710q11 0 11 -8l-1 -2v-3l-121 -684q-1 -13 -14 -13h-22q-13 0 -10 13l49 281q-92 -23 -206 -23q-213 0 -213 176q0 38 7 74l32 176q3 13 14 13h21q12 0 11 -13l-32 -180q-7 -42 -7 -65q0 -70 41.5 -103.5t134.5 -33.5q108 0 206 23l63 359q3 13 14 13h22z"/>
<glyph glyph-name="uni0448" horiz-adv-x="906" unicode="ш" d="M882 710q12 0 11 -13l-121 -684q-3 -13 -15 -13h-715q-11 0 -11 7q0 1 0.5 3t0.5 3l121 684q1 13 14 13h21q12 0 11 -13l-116 -654h301l115 654q3 13 15 13h21q12 0 11 -13l-116 -654h301l115 654q3 13 14 13h22z"/>
<glyph glyph-name="uni0449" horiz-adv-x="927" unicode="щ" d="M847 43q11 0 10 -12l-30 -171q-3 -13 -15 -13h-20q-13 0 -10 13l24 140h-764q-11 0 -11 7q0 1 0.5 3t0.5 3l121 684q1 13 14 13h21q12 0 11 -13l-116 -654h301l115 654q3 13 15 13h21q12 0 11 -13l-116 -654h301l115 654q3 13 14 13h22q12 0 11 -13l-116 -654h70z"/>
<glyph glyph-name="uni044A" horiz-adv-x="711" unicode="ъ" d="M410 43q82 0 137.5 46.5t69.5 128.5q4 28 4 40q0 64 -39.5 98.5t-110.5 34.5h-232l-61 -348h232zM479 434q89 0 139.5 -46t50.5 -126q0 -22 -5 -50q-17 -101 -85 -156.5t-171 -55.5h-271q-14 0 -11 13l116 654h-161q-12 0 -11 12l4 18q1 13 14 13h195q12 0 11 -13 l-48 -263h233z"/>
<glyph glyph-name="uni044B" horiz-adv-x="843" unicode="ы" d="M522 218q4 20 4 41q0 63 -39.5 97.5t-110.5 34.5h-232l-61 -348h231q83 0 138.5 46.5t69.5 128.5zM784 697q1 13 14 13h21q12 0 11 -13l-121 -684q-3 -13 -15 -13h-21q-13 0 -10 13zM570 214q-18 -101 -87 -157.5t-171 -56.5h-270q-11 0 -11 7q0 1 0.5 3t0.5 3l121 684 q1 13 14 13h21q12 0 11 -13l-47 -263h233q89 0 139.5 -45.5t50.5 -125.5q0 -21 -5 -49z"/>
<glyph glyph-name="uni044C" horiz-adv-x="616" unicode="ь" d="M522 218q4 20 4 41q0 63 -39.5 97.5t-110.5 34.5h-232l-61 -348h231q83 0 138.5 46.5t69.5 128.5zM570 214q-18 -101 -87 -157.5t-171 -56.5h-270q-11 0 -11 7q0 1 0.5 3t0.5 3l121 684q1 13 14 13h21q12 0 11 -13l-47 -263h233q89 0 139.5 -45.5t50.5 -125.5 q0 -21 -5 -49z"/>
<glyph glyph-name="uni044D" horiz-adv-x="635" unicode="э" d="M87 551q42 88 110.5 130.5t181.5 42.5t172 -51t59 -143q0 -23 -5 -56l-43 -246q-20 -116 -100 -179t-209 -63q-115 0 -170.5 44.5t-65.5 133.5q0 1 -1 3v2q0 8 12 11l19 7q12 4 15 -8q9 -77 54 -113.5t142 -36.5q107 0 174 53.5t84 148.5l18 107h-327q-13 0 -10 12l3 18 q1 13 15 13h327l18 99q4 21 4 46q0 74 -48.5 114.5t-142.5 40.5q-96 0 -152.5 -34.5t-92.5 -111.5q-6 -11 -18 -7l-18 6q-11 4 -5 17z"/>
<glyph glyph-name="uni044E" horiz-adv-x="915" unicode="ю" d="M837 478q5 28 5 48q0 74 -48 114.5t-140 40.5q-107 0 -173 -53.5t-83 -149.5l-44 -246q-4 -21 -4 -47q0 -75 48 -115.5t141 -40.5q107 0 172 52t83 151zM351 480q20 116 100 180t209 64q112 0 170 -51.5t58 -143.5q0 -23 -5 -56l-43 -247q-20 -115 -99 -177.5t-208 -62.5 q-112 0 -171 50.5t-59 141.5q0 23 5 55l19 105h-192l-57 -325q-3 -13 -15 -13h-21q-11 0 -11 7q0 1 0.5 3t0.5 3l121 684q1 13 14 13h21q12 0 11 -13l-56 -316h192z"/>
<glyph glyph-name="uni044F" horiz-adv-x="642" unicode="я" d="M327 667q-76 0 -125.5 -40.5t-62.5 -115.5q-3 -19 -3 -36q0 -58 35.5 -89t100.5 -31h249l55 312h-249zM92 516q17 94 79.5 144t158.5 50h287q12 0 12 -8l-1 -2v-3l-121 -684q-3 -13 -15 -13h-21q-13 0 -10 13l53 299h-169q-62 0 -99.5 -21.5t-71.5 -73.5l-132 -206 q-9 -11 -28 -11h-19q-9 0 -9 5q0 2 4 8l146 222q39 63 92 84q-67 7 -103.5 47t-36.5 106q0 23 4 44z"/>
<glyph glyph-name="uni0451" horiz-adv-x="569" unicode="ё" d="M576 710q11 0 11 -8l-1 -2v-3l-4 -18q-1 -12 -14 -12h-375l-50 -286h331q14 0 11 -12l-4 -18q-3 -13 -15 -13h-331l-52 -295h389q13 0 10 -12l-3 -18q-3 -13 -15 -13h-422q-11 0 -11 7q0 1 0.5 3t0.5 3l121 684q1 13 14 13h409zM504 843q20 0 20 -15q0 -5 -1 -8l-1 -7 q-5 -22 -28 -22h-5q-21 0 -21 13q0 6 1 9l1 7q4 23 28 23h6zM313 843q20 0 20 -15q0 -1 -0.5 -3.5t-0.5 -4.5l-2 -7q-2 -13 -7.5 -17.5t-18.5 -4.5h-7q-19 0 -19 13q0 5 1 9l1 7q4 23 27 23h6z"/>
<glyph glyph-name="endash" horiz-adv-x="579" unicode="–" d="M500 288q11 0 11 -7l-1 -2v-3l-3 -17q-3 -12 -14 -12h-427q-12 0 -12 7v2q1 2 1 3l3 17q3 12 15 12h427z"/>
<glyph glyph-name="emdash" horiz-adv-x="778" unicode="—" d="M700 288q12 0 11 -12l-4 -17q-1 -12 -14 -12h-627q-12 0 -11 12l4 17q1 12 15 12h626z"/>
<glyph glyph-name="quoteleft" horiz-adv-x="185" unicode="‘" d="M172 698q4 12 15 12h9q9 0 8 -9l-58 -157q-4 -15 -19 -15h-17q-14 0 -14 8q0 3 2 7z"/>
<glyph glyph-name="quotesinglbase" horiz-adv-x="150" unicode="‚" d="M23 -104q-1 -12 -13 -12h-11q-12 0 -11 12l38 202q3 12 13 12h20q11 0 11 -7v-2q-1 -2 -1 -3z"/>
<glyph glyph-name="quotedblleft" horiz-adv-x="290" unicode="“" d="M277 698q4 12 14 12h9q10 0 9 -9l-58 -157q-4 -15 -19 -15h-17q-18 0 -12 15zM172 698q4 12 15 12h9q9 0 8 -9l-58 -157q-4 -15 -19 -15h-17q-14 0 -14 8q0 3 2 7z"/>
<glyph glyph-name="quotedblright" horiz-adv-x="287" unicode="”" d="M238 541q-4 -12 -15 -12h-9q-9 0 -8 9l58 157q4 15 19 15h16q14 0 14 -8q0 -1 -2 -7zM133 541q-4 -12 -15 -12h-9q-9 0 -8 9l58 157q4 15 19 15h16q14 0 14 -8q0 -1 -2 -7z"/>
<glyph glyph-name="dagger" horiz-adv-x="538" unicode="†" d="M519 466q11 0 10 -13l-3 -18q-3 -12 -15 -12h-200l-90 -510q-1 -13 -14 -13h-19q-13 0 -10 13l89 510h-200q-11 0 -11 7v2q1 2 1 3l3 18q1 13 15 13h201l40 231q3 13 14 13h19q14 0 11 -13l-41 -231h200z"/>
<glyph glyph-name="daggerdbl" horiz-adv-x="585" unicode="‡" d="M375 710q12 0 11 -13l-41 -231h199q7 0 9 -2.5t1 -10.5l-3 -18q-3 -12 -15 -12h-199l-42 -237h199q14 0 11 -13l-4 -18q-1 -12 -14 -12h-199l-41 -230q-1 -13 -15 -13h-19q-11 0 -10 13l41 230h-201q-12 0 -11 12l4 18q3 13 14 13h201l42 237h-201q-13 0 -10 12l3 18 q1 13 15 13h201l41 231q1 13 14 13h19z"/>
<glyph glyph-name="ellipsis" horiz-adv-x="555" unicode="…" d="M440 55q23 0 23 -16q0 -7 -1 -11l-1 -6q-5 -27 -33 -27h-5q-23 0 -23 16q0 7 1 11l2 6q2 15 9.5 21t22.5 6h5zM244 55q23 0 23 -16q0 -7 -1 -11l-1 -6q-5 -27 -33 -27h-5q-24 0 -24 15q0 2 2 12l1 6q3 16 10 21.5t23 5.5h5zM47 55q23 0 23 -16q0 -7 -1 -11l-1 -6 q-5 -27 -33 -27h-5q-23 0 -23 16q0 7 1 11l2 6q2 16 9 21.5t23 5.5h5z"/>
<glyph glyph-name="perthousand" horiz-adv-x="1175" unicode="‰" d="M1086 203q3 15 3 28q0 40 -26 62t-74 22q-56 0 -91.5 -29.5t-45.5 -82.5l-12 -71q-2 -9 -2 -26q0 -85 99 -85q57 0 92.5 29t44.5 82zM714 203q3 15 3 28q0 40 -26 62t-74 22q-56 0 -91.5 -29.5t-45.5 -82.5l-12 -71q-2 -9 -2 -26q0 -85 99 -85q57 0 92.5 29t44.5 82z M815 204q12 69 59 108t122 39q64 0 97.5 -29.5t33.5 -82.5q0 -17 -3 -35l-13 -74q-12 -68 -59 -106.5t-121 -38.5q-65 0 -98.5 29t-33.5 82q0 16 3 34zM443 204q12 69 59 108t122 39q64 0 97.5 -29.5t33.5 -82.5q0 -17 -3 -35l-13 -74q-12 -68 -59 -106.5t-121 -38.5 q-65 0 -98.5 29t-33.5 82q0 16 3 34zM358 577q3 15 3 27q0 41 -26 63t-75 22q-56 0 -91.5 -29.5t-44.5 -82.5l-12 -71q-3 -15 -3 -28q0 -40 25.5 -61.5t74.5 -21.5q57 0 92 29t45 82zM746 710q8 0 8 -5q0 -4 -4 -8l-626 -686q-10 -11 -27 -11h-16q-9 0 -9 5q0 3 5 8l626 686 q10 11 25 11h18zM87 579q12 69 58.5 107.5t121.5 38.5q64 0 98 -29.5t34 -82.5q0 -16 -3 -34l-13 -75q-12 -68 -59 -106.5t-122 -38.5q-64 0 -97.5 28.5t-33.5 81.5q0 17 3 35z"/>
<glyph glyph-name="guilsinglleft" horiz-adv-x="328" unicode="‹" d="M235 78q7 -7 -3 -15l-13 -12q-7 -5 -9 -5q-4 0 -7 5l-168 204q-3 5 -3 7q0 3 5 8l240 205q4 4 8 4t8 -4l11 -13q3 -3 3 -6t-7 -9l-216 -185z"/>
<glyph glyph-name="guilsinglright" horiz-adv-x="330" unicode="›" d="M80 452q-5 8 4 15l14 10q7 5 9 5q3 0 6 -5l170 -207q2 -2 2 -6t-5 -9l-239 -204q-5 -4 -10 -4q-3 0 -6 4l-13 17q-3 3 -3 6q0 4 6 9l217 184z"/>
<glyph glyph-name="fraction" horiz-adv-x="141" unicode="⁄" d="M309 698q8 12 23 12h17q10 0 10 -6q0 -2 -3 -7l-504 -685q-6 -8 -10 -10t-16 -2h-15q-10 0 -10 6q0 2 3 7z"/>
<glyph glyph-name="Euro" horiz-adv-x="723" unicode="€" d="M183 487q21 114 101.5 176t210.5 62q96 0 146.5 -31t70.5 -93q3 -5 3 -9q0 -6 -11 -11l-14 -5q-15 -6 -19 6q-32 100 -184 100q-107 0 -173.5 -52t-82.5 -144l-8 -43h338q13 0 7 -11l-7 -14q-5 -11 -17 -11h-328l-21 -114h296q13 0 6 -11l-6 -14q-7 -11 -18 -11h-283 l-6 -33q-4 -20 -4 -42q0 -73 49.5 -113.5t142.5 -40.5q158 0 224 109q10 13 22 6l14 -7q13 -7 2 -21q-81 -130 -270 -130q-112 0 -172 49t-60 138q0 22 5 52l6 33h-108q-9 0 -9 5q0 1 2 7l6 13q7 11 18 11h98l20 114h-71q-13 0 -8 12l7 13q6 11 16 11h61z"/>
<glyph glyph-name="uni20BD" horiz-adv-x="639" unicode="₽" d="M388 339q81 0 135.5 43t67.5 120q4 26 4 38q0 61 -39 94t-110 33h-234l-57 -328h233zM495 185q7 0 9 -2.5t1 -10.5l-2 -11q-3 -12 -15 -12h-367l-24 -136q-3 -13 -15 -13h-21q-13 0 -10 13l24 136h-53q-11 0 -11 7l1 2v3l3 11q0 13 14 13h52l91 512q1 13 14 13h271 q87 0 136 -44t49 -122q0 -24 -4 -47q-17 -97 -84.5 -149t-169.5 -52h-237l-19 -111h367z"/>
<glyph glyph-name="trademark" horiz-adv-x="620" unicode="™" d="M605 695q5 0 7 -1.5t1 -7.5l-42 -234q-1 -9 -11 -9h-9q-9 0 -8 9l24 137q4 22 11 53q-4 -4 -13.5 -17t-15.5 -19l-82 -98q-5 -6 -13 -6h-4q-7 0 -10 5l-47 96q-10 24 -17 38l-9 -52l-24 -137q-1 -4 -1.5 -5.5t-3 -2.5t-6.5 -1h-9q-11 0 -8 9l41 233q1 10 13 10h4 q8 0 10 -6l74 -154l128 153q5 7 13 7h7zM322 695q6 0 7.5 -1.5t0.5 -8.5l-2 -8q-2 -9 -11 -9h-89l-38 -216q-1 -9 -13 -9h-7q-11 0 -8 9l37 216h-90q-8 0 -8 4q0 3 1 5l2 8q1 7 2.5 8.5t7.5 1.5h208z"/>
<glyph glyph-name="arrowleft" horiz-adv-x="745" unicode="←" d="M699 352q9 0 9 -6v-2q-1 -2 -1 -3l-2 -15q-1 -10 -12 -10h-597l175 -213q5 -8 -4 -15l-12 -12q-6 -4 -8 -4q-3 0 -8 5l-203 246q-4 6 -4 9q0 5 8 13l290 246q5 5 9 5q2 0 6 -4l9 -12q7 -7 -2 -15l-250 -213h597z"/>
<glyph glyph-name="arrowup" horiz-adv-x="745" unicode="↑" d="M650 418q3 -4 3 -7t-5 -8l-14 -11q-8 -8 -15 0l-175 211l-105 -596q-1 -11 -13 -11h-16q-11 0 -8 11l105 596l-250 -212q-9 -6 -15 0l-9 12q-3 3 -3 6t6 9l289 246q7 6 13 6q4 0 9 -6z"/>
<glyph glyph-name="arrowright" horiz-adv-x="745" unicode="→" d="M721 345q5 -5 5 -9q0 -6 -9 -13l-289 -246q-7 -5 -9 -5q-4 0 -6 4l-10 12q-6 7 3 15l249 213h-596q-10 0 -9 10l2 15q3 11 13 11h597l-175 213q-6 7 3 15l13 12q6 4 8 4q3 0 8 -5z"/>
<glyph glyph-name="arrowdown" horiz-adv-x="745" unicode="↓" d="M446 669q11 0 8 -10l-105 -597l250 212q7 8 15 0l9 -11q3 -3 3 -7q0 -3 -6 -9l-290 -246q-6 -6 -12 -6q-4 0 -9 6l-203 246q-4 6 -4 7q0 4 6 9l13 11q9 7 16 0l175 -212l105 597q1 10 13 10h16z"/>
<glyph glyph-name="partialdiff" horiz-adv-x="548" unicode="∂" d="M444 316q3 17 3 33q0 56 -38.5 86.5t-111.5 30.5q-85 0 -136.5 -39.5t-63.5 -111.5l-25 -140q-3 -18 -3 -34q0 -56 38.5 -86.5t111.5 -30.5q84 0 135.5 40t63.5 111zM206 729q1 12 14 12q153 0 222.5 -58.5t69.5 -177.5q0 -46 -11 -107l-40 -226q-16 -89 -80 -138 t-169 -49q-92 0 -139.5 40.5t-47.5 112.5q0 12 4 42l25 140q16 89 78.5 137t164.5 48q137 0 165 -95q8 51 8 88q0 105 -60 154t-197 49q-7 0 -9 2.5t-1 9.5z"/>
<glyph glyph-name="product" horiz-adv-x="674" unicode="∏" d="M700 710q7 0 9.5 -2.5t1.5 -10.5l-4 -18q-1 -12 -14 -12h-75l-133 -754q-1 -13 -15 -13h-21q-11 0 -10 13l133 754h-338l-133 -754q-3 -13 -15 -13h-21q-7 0 -9.5 2.5t-1.5 10.5l134 754h-77q-12 0 -11 12l4 18q1 13 14 13h582z"/>
<glyph glyph-name="summation" horiz-adv-x="566" unicode="∑" d="M305 324q6 -13 -5 -28l-271 -353h414q13 0 10 -12l-3 -18q-3 -13 -15 -13h-458q-11 0 -11 7q0 1 0.5 3t0.5 3l3 17q0 5 6 13l285 368l-154 354q-4 6 -2 15l3 17q3 13 14 13h452q9 0 9 -7v-6l-3 -18q-1 -12 -13 -12h-411z"/>
<glyph glyph-name="minus" horiz-adv-x="606" unicode="−" d="M533 346q11 0 11 -7v-2q-1 -2 -1 -3l-3 -17q-3 -13 -15 -13h-447q-11 0 -11 8l1 2v3l3 17q3 12 15 12h447z"/>
<glyph glyph-name="radical" horiz-adv-x="675" unicode="√" d="M732 750q8 0 8 -4q0 -2 -2 -8l-401 -834q-6 -10 -18 -10h-20q-12 0 -13 10l-85 494h-144q-11 0 -11 7q0 4 1 6l3 16q1 13 14 13h158q13 0 16.5 -2t5.5 -10l59 -358q4 -27 7.5 -71.5t5.5 -55.5h3q8 15 26.5 59.5t29.5 68.5l317 669q4 10 22 10h18z"/>
<glyph glyph-name="infinity" horiz-adv-x="718" unicode="∞" d="M622 284q2 8 2 24q0 40 -25 64.5t-68 24.5q-22 0 -43 -7.5t-36 -18.5t-29.5 -26t-22 -25.5t-15.5 -22.5l-8 -12l3 -11q4 -10 7 -18t9.5 -21t15.5 -22.5t20.5 -19t28 -14.5t35.5 -5q46 0 82 31.5t44 78.5zM334 285q-1 1 -4.5 12.5t-8 22.5t-13.5 25.5t-20.5 25.5 t-29.5 18.5t-39 7.5q-49 0 -85 -32t-45 -81q-2 -14 -2 -21q0 -39 25 -64t65 -25q26 0 50.5 10t43 26.5t30.5 30t23 29.5zM361 320q76 115 177 115q56 0 90.5 -34.5t34.5 -88.5q0 -14 -3 -31q-11 -63 -60.5 -104t-110.5 -41q-102 0 -140 112q-74 -112 -178 -112 q-54 0 -88.5 34.5t-34.5 87.5q0 13 3 28q11 66 59.5 107.5t114.5 41.5q100 0 136 -115z"/>
<glyph glyph-name="approxequal" horiz-adv-x="562" unicode="≈" d="M57 233q62 49 122 49h3q39 0 92.5 -22t86.5 -22q49 0 99 40q10 7 16 -1l12 -12q7 -10 -4 -18q-62 -49 -122 -49h-3q-39 0 -92.5 22t-86.5 22q-48 0 -99 -40q-5 -4 -9 -4t-8 5l-10 12q-4 4 -4 8q0 6 7 10zM88 416q63 49 124 50q39 0 93.5 -22.5t88.5 -22.5q49 1 98 40 q10 7 16 0l11 -13q4 -4 4 -7q0 -5 -7 -11q-60 -48 -123 -49h-3q-39 0 -92 22t-86 22q-48 0 -99 -40q-5 -4 -9 -4t-7 5l-11 12q-4 4 -4 8q0 6 6 10z"/>
<glyph glyph-name="notequal" horiz-adv-x="616" unicode="≠" d="M522 249q12 0 11 -13l-3 -16q-3 -13 -15 -13h-271l-93 -134q-3 -4 -11 -4h-18q-6 0 -1 5l91 133h-144q-11 0 -11 7q0 1 0.5 3t0.5 3l3 16q1 13 14 13h166l107 156h-245q-13 0 -10 12l3 17q1 13 14 13h267l90 132q4 4 11 4h19q6 0 1 -5l-90 -131h149q12 0 11 -13l-3 -17 q-3 -12 -15 -12h-171l-107 -156h250z"/>
<glyph glyph-name="lessequal" horiz-adv-x="580" unicode="≤" d="M448 128q8 0 10 -2.5t1 -9.5l-3 -17q-2 -12 -16 -12h-380q-12 0 -12 8v2q1 2 1 3l3 15q3 13 16 13h380zM542 592q-2 -16 -15 -21l-365 -150v-2l312 -149q11 -5 8 -21l-3 -17q-1 -11 -8 -11q-4 0 -7 2l-352 176q-9 5 -9 11q0 1 0.5 2.5t0.5 2.5l3 12q2 12 13 16l414 175 q6 2 8 2q4 0 4 -5q0 -4 -1 -6z"/>
<glyph glyph-name="greaterequal" horiz-adv-x="573" unicode="≥" d="M454 131q14 0 11 -13l-3 -15q-3 -13 -15 -13h-381q-12 0 -12 7v2q1 2 1 3l3 16q2 13 16 13h380zM145 609q1 11 8 11q1 0 7 -2l352 -175q10 -4 8 -16l-2 -12q-2 -11 -14 -16l-413 -176q-4 -2 -9 -2t-5 6l1 2v3l3 18q4 17 17 22l364 149v2l-311 150q-8 3 -9.5 6.5t0.5 14.5 z"/>
<glyph glyph-name="lozenge" horiz-adv-x="518" unicode="◊" d="M213 52h3l231 303l-124 304h-2l-230 -304zM337 710q10 0 15 -10l139 -334q2 -6 2 -8q0 -6 -6 -14l-257 -334q-9 -10 -19 -10h-12q-10 0 -14 10l-139 334q-3 4 -3 9q0 6 6 13l257 333q8 11 18 11h13z"/>
</font>
</defs>
</svg>
